<svg width="561" height="344" viewBox="0 0 561 344" fill="none" xmlns="http://www.w3.org/2000/svg">
<path d="M18.9 42.496C22.748 42.496 26.1107 43.2586 28.988 44.784C31.8653 46.3093 34.084 48.4586 35.644 51.232C37.2387 53.9706 38.036 57.1426 38.036 60.748C38.036 64.3186 37.2387 67.4906 35.644 70.264C34.084 73.0373 31.848 75.1866 28.936 76.712C26.0587 78.2373 22.7133 79 18.9 79H5.224V42.496H18.9ZM18.328 71.304C21.6907 71.304 24.308 70.3853 26.18 68.548C28.052 66.7106 28.988 64.1106 28.988 60.748C28.988 57.3853 28.052 54.768 26.18 52.896C24.308 51.024 21.6907 50.088 18.328 50.088H14.116V71.304H18.328ZM47.4773 46.968C45.9173 46.968 44.6346 46.5173 43.6293 45.616C42.6586 44.68 42.1733 43.536 42.1733 42.184C42.1733 40.7973 42.6586 39.6533 43.6293 38.752C44.6346 37.816 45.9173 37.348 47.4773 37.348C49.0026 37.348 50.2506 37.816 51.2213 38.752C52.2266 39.6533 52.7293 40.7973 52.7293 42.184C52.7293 43.536 52.2266 44.68 51.2213 45.616C50.2506 46.5173 49.0026 46.968 47.4773 46.968ZM51.8973 49.984V79H43.0053V49.984H51.8973ZM70.1452 79.416C67.6145 79.416 65.3612 78.9826 63.3852 78.116C61.4092 77.2493 59.8492 76.0706 58.7052 74.58C57.5612 73.0546 56.9199 71.356 56.7812 69.484H65.5692C65.6732 70.4893 66.1412 71.304 66.9732 71.928C67.8052 72.552 68.8279 72.864 70.0412 72.864C71.1505 72.864 71.9999 72.656 72.5892 72.24C73.2132 71.7893 73.5252 71.2173 73.5252 70.524C73.5252 69.692 73.0919 69.0853 72.2252 68.704C71.3585 68.288 69.9545 67.8373 68.0132 67.352C65.9332 66.8666 64.1999 66.364 62.8132 65.844C61.4265 65.2893 60.2305 64.44 59.2252 63.296C58.2199 62.1173 57.7172 60.54 57.7172 58.564C57.7172 56.9 58.1679 55.392 59.0692 54.04C60.0052 52.6533 61.3572 51.5613 63.1252 50.764C64.9279 49.9666 67.0599 49.568 69.5212 49.568C73.1612 49.568 76.0212 50.4693 78.1012 52.272C80.2159 54.0746 81.4292 56.4666 81.7412 59.448H73.5252C73.3865 58.4426 72.9359 57.6453 72.1732 57.056C71.4452 56.4666 70.4745 56.172 69.2612 56.172C68.2212 56.172 67.4239 56.38 66.8692 56.796C66.3145 57.1773 66.0372 57.7146 66.0372 58.408C66.0372 59.24 66.4705 59.864 67.3372 60.28C68.2385 60.696 69.6252 61.112 71.4972 61.528C73.6465 62.0826 75.3972 62.6373 76.7492 63.192C78.1012 63.712 79.2799 64.5786 80.2852 65.792C81.3252 66.9706 81.8625 68.5653 81.8972 70.576C81.8972 72.2746 81.4119 73.8 80.4412 75.152C79.5052 76.4693 78.1359 77.5093 76.3332 78.272C74.5652 79.0346 72.5025 79.416 70.1452 79.416ZM85.5693 64.492C85.5693 61.476 86.1759 58.8413 87.3893 56.588C88.6373 54.3346 90.3533 52.6013 92.5373 51.388C94.7559 50.1746 97.2866 49.568 100.129 49.568C103.769 49.568 106.803 50.5213 109.229 52.428C111.691 54.3346 113.303 57.0213 114.065 60.488H104.601C103.804 58.2693 102.261 57.16 99.9733 57.16C98.3439 57.16 97.0439 57.8013 96.0733 59.084C95.1026 60.332 94.6173 62.1346 94.6173 64.492C94.6173 66.8493 95.1026 68.6693 96.0733 69.952C97.0439 71.2 98.3439 71.824 99.9733 71.824C102.261 71.824 103.804 70.7146 104.601 68.496H114.065C113.303 71.8933 111.691 74.5626 109.229 76.504C106.768 78.4453 103.735 79.416 100.129 79.416C97.2866 79.416 94.7559 78.8093 92.5373 77.596C90.3533 76.3826 88.6373 74.6493 87.3893 72.396C86.1759 70.1426 85.5693 67.508 85.5693 64.492ZM132.03 79.416C129.187 79.416 126.622 78.8093 124.334 77.596C122.08 76.3826 120.295 74.6493 118.978 72.396C117.695 70.1426 117.054 67.508 117.054 64.492C117.054 61.5106 117.712 58.8933 119.03 56.64C120.347 54.352 122.15 52.6013 124.438 51.388C126.726 50.1746 129.291 49.568 132.134 49.568C134.976 49.568 137.542 50.1746 139.83 51.388C142.118 52.6013 143.92 54.352 145.238 56.64C146.555 58.8933 147.214 61.5106 147.214 64.492C147.214 67.4733 146.538 70.108 145.186 72.396C143.868 74.6493 142.048 76.3826 139.726 77.596C137.438 78.8093 134.872 79.416 132.03 79.416ZM132.03 71.72C133.728 71.72 135.167 71.096 136.346 69.848C137.559 68.6 138.166 66.8146 138.166 64.492C138.166 62.1693 137.576 60.384 136.398 59.136C135.254 57.888 133.832 57.264 132.134 57.264C130.4 57.264 128.962 57.888 127.818 59.136C126.674 60.3493 126.102 62.1346 126.102 64.492C126.102 66.8146 126.656 68.6 127.766 69.848C128.91 71.096 130.331 71.72 132.03 71.72ZM164.983 70.68L171.275 49.984H180.739L170.443 79H159.471L149.175 49.984H158.691L164.983 70.68ZM211.834 64.024C211.834 64.856 211.782 65.7226 211.678 66.624H191.554C191.692 68.4266 192.264 69.8133 193.27 70.784C194.31 71.72 195.575 72.188 197.066 72.188C199.284 72.188 200.827 71.252 201.694 69.38H211.158C210.672 71.2866 209.788 73.0026 208.506 74.528C207.258 76.0533 205.68 77.2493 203.774 78.116C201.867 78.9826 199.735 79.416 197.378 79.416C194.535 79.416 192.004 78.8093 189.786 77.596C187.567 76.3826 185.834 74.6493 184.586 72.396C183.338 70.1426 182.714 67.508 182.714 64.492C182.714 61.476 183.32 58.8413 184.534 56.588C185.782 54.3346 187.515 52.6013 189.734 51.388C191.952 50.1746 194.5 49.568 197.378 49.568C200.186 49.568 202.682 50.1573 204.866 51.336C207.05 52.5146 208.748 54.196 209.962 56.38C211.21 58.564 211.834 61.112 211.834 64.024ZM202.734 61.684C202.734 60.1586 202.214 58.9453 201.174 58.044C200.134 57.1426 198.834 56.692 197.274 56.692C195.783 56.692 194.518 57.1253 193.478 57.992C192.472 58.8586 191.848 60.0893 191.606 61.684H202.734ZM225.417 54.82C226.457 53.2253 227.757 51.9773 229.317 51.076C230.877 50.14 232.61 49.672 234.517 49.672V59.084H232.073C229.854 59.084 228.19 59.5693 227.081 60.54C225.971 61.476 225.417 63.14 225.417 65.532V79H216.525V49.984H225.417V54.82ZM267.051 79.364C263.619 79.364 260.464 78.5666 257.587 76.972C254.744 75.3773 252.473 73.1586 250.775 70.316C249.11 67.4386 248.278 64.2146 248.278 60.644C248.278 57.0733 249.11 53.8666 250.775 51.024C252.473 48.1813 254.744 45.9626 257.587 44.368C260.464 42.7733 263.619 41.976 267.051 41.976C270.483 41.976 273.62 42.7733 276.463 44.368C279.34 45.9626 281.593 48.1813 283.223 51.024C284.887 53.8666 285.719 57.0733 285.719 60.644C285.719 64.2146 284.887 67.4386 283.223 70.316C281.559 73.1586 279.305 75.3773 276.463 76.972C273.62 78.5666 270.483 79.364 267.051 79.364ZM267.051 71.252C269.963 71.252 272.285 70.2813 274.018 68.34C275.787 66.3986 276.671 63.8333 276.671 60.644C276.671 57.42 275.787 54.8546 274.018 52.948C272.285 51.0066 269.963 50.036 267.051 50.036C264.104 50.036 261.747 50.9893 259.979 52.896C258.245 54.8026 257.379 57.3853 257.379 60.644C257.379 63.868 258.245 66.4506 259.979 68.392C261.747 70.2986 264.104 71.252 267.051 71.252ZM319.317 49.984V79H310.425V75.048C309.524 76.3306 308.293 77.3706 306.733 78.168C305.208 78.9306 303.509 79.312 301.637 79.312C299.419 79.312 297.46 78.8266 295.761 77.856C294.063 76.8506 292.745 75.412 291.809 73.54C290.873 71.668 290.405 69.4666 290.405 66.936V49.984H299.245V65.74C299.245 67.6813 299.748 69.1893 300.753 70.264C301.759 71.3386 303.111 71.876 304.809 71.876C306.543 71.876 307.912 71.3386 308.917 70.264C309.923 69.1893 310.425 67.6813 310.425 65.74V49.984H319.317ZM334.596 54.82C335.636 53.2253 336.936 51.9773 338.496 51.076C340.056 50.14 341.79 49.672 343.696 49.672V59.084H341.252C339.034 59.084 337.37 59.5693 336.26 60.54C335.151 61.476 334.596 63.14 334.596 65.532V79H325.704V49.984H334.596V54.82ZM37.88 144H28.988L14.116 121.484V144H5.224V107.496H14.116L28.988 130.116V107.496H37.88V144ZM71.6776 129.024C71.6776 129.856 71.6256 130.723 71.5216 131.624H51.3976C51.5362 133.427 52.1082 134.813 53.1136 135.784C54.1536 136.72 55.4189 137.188 56.9096 137.188C59.1282 137.188 60.6709 136.252 61.5376 134.38H71.0016C70.5162 136.287 69.6322 138.003 68.3496 139.528C67.1016 141.053 65.5242 142.249 63.6176 143.116C61.7109 143.983 59.5789 144.416 57.2216 144.416C54.3789 144.416 51.8482 143.809 49.6296 142.596C47.4109 141.383 45.6776 139.649 44.4296 137.396C43.1816 135.143 42.5576 132.508 42.5576 129.492C42.5576 126.476 43.1642 123.841 44.3776 121.588C45.6256 119.335 47.3589 117.601 49.5776 116.388C51.7962 115.175 54.3442 114.568 57.2216 114.568C60.0296 114.568 62.5256 115.157 64.7096 116.336C66.8936 117.515 68.5922 119.196 69.8056 121.38C71.0536 123.564 71.6776 126.112 71.6776 129.024ZM62.5776 126.684C62.5776 125.159 62.0576 123.945 61.0176 123.044C59.9776 122.143 58.6776 121.692 57.1176 121.692C55.6269 121.692 54.3616 122.125 53.3216 122.992C52.3162 123.859 51.6922 125.089 51.4496 126.684H62.5776ZM118.021 114.984L110.169 144H100.341L95.7645 125.176L91.0325 144H81.2565L73.3525 114.984H82.2445L86.3525 135.732L91.2405 114.984H100.653L105.593 135.628L109.649 114.984H118.021ZM130.923 125.696C130.923 122.091 131.703 118.884 133.263 116.076C134.823 113.233 136.99 111.032 139.763 109.472C142.571 107.877 145.743 107.08 149.279 107.08C153.612 107.08 157.322 108.224 160.407 110.512C163.492 112.8 165.555 115.92 166.595 119.872H156.819C156.091 118.347 155.051 117.185 153.699 116.388C152.382 115.591 150.874 115.192 149.175 115.192C146.436 115.192 144.218 116.145 142.519 118.052C140.82 119.959 139.971 122.507 139.971 125.696C139.971 128.885 140.82 131.433 142.519 133.34C144.218 135.247 146.436 136.2 149.175 136.2C150.874 136.2 152.382 135.801 153.699 135.004C155.051 134.207 156.091 133.045 156.819 131.52H166.595C165.555 135.472 163.492 138.592 160.407 140.88C157.322 143.133 153.612 144.26 149.279 144.26C145.743 144.26 142.571 143.48 139.763 141.92C136.99 140.325 134.823 138.124 133.263 135.316C131.703 132.508 130.923 129.301 130.923 125.696ZM185.248 144.416C182.406 144.416 179.84 143.809 177.552 142.596C175.299 141.383 173.514 139.649 172.196 137.396C170.914 135.143 170.272 132.508 170.272 129.492C170.272 126.511 170.931 123.893 172.248 121.64C173.566 119.352 175.368 117.601 177.656 116.388C179.944 115.175 182.51 114.568 185.352 114.568C188.195 114.568 190.76 115.175 193.048 116.388C195.336 117.601 197.139 119.352 198.456 121.64C199.774 123.893 200.432 126.511 200.432 129.492C200.432 132.473 199.756 135.108 198.404 137.396C197.087 139.649 195.267 141.383 192.944 142.596C190.656 143.809 188.091 144.416 185.248 144.416ZM185.248 136.72C186.947 136.72 188.386 136.096 189.564 134.848C190.778 133.6 191.384 131.815 191.384 129.492C191.384 127.169 190.795 125.384 189.616 124.136C188.472 122.888 187.051 122.264 185.352 122.264C183.619 122.264 182.18 122.888 181.036 124.136C179.892 125.349 179.32 127.135 179.32 129.492C179.32 131.815 179.875 133.6 180.984 134.848C182.128 136.096 183.55 136.72 185.248 136.72ZM214.042 105.52V144H205.15V105.52H214.042ZM229.378 105.52V144H220.486V105.52H229.378ZM263.174 129.024C263.174 129.856 263.122 130.723 263.018 131.624H242.894C243.032 133.427 243.604 134.813 244.61 135.784C245.65 136.72 246.915 137.188 248.406 137.188C250.624 137.188 252.167 136.252 253.034 134.38H262.498C262.012 136.287 261.128 138.003 259.846 139.528C258.598 141.053 257.02 142.249 255.114 143.116C253.207 143.983 251.075 144.416 248.718 144.416C245.875 144.416 243.344 143.809 241.126 142.596C238.907 141.383 237.174 139.649 235.926 137.396C234.678 135.143 234.054 132.508 234.054 129.492C234.054 126.476 234.66 123.841 235.874 121.588C237.122 119.335 238.855 117.601 241.074 116.388C243.292 115.175 245.84 114.568 248.718 114.568C251.526 114.568 254.022 115.157 256.206 116.336C258.39 117.515 260.088 119.196 261.302 121.38C262.55 123.564 263.174 126.112 263.174 129.024ZM254.074 126.684C254.074 125.159 253.554 123.945 252.514 123.044C251.474 122.143 250.174 121.692 248.614 121.692C247.123 121.692 245.858 122.125 244.818 122.992C243.812 123.859 243.188 125.089 242.946 126.684H254.074ZM266.097 129.492C266.097 126.476 266.703 123.841 267.917 121.588C269.165 119.335 270.881 117.601 273.065 116.388C275.283 115.175 277.814 114.568 280.657 114.568C284.297 114.568 287.33 115.521 289.757 117.428C292.218 119.335 293.83 122.021 294.593 125.488H285.129C284.331 123.269 282.789 122.16 280.501 122.16C278.871 122.16 277.571 122.801 276.601 124.084C275.63 125.332 275.145 127.135 275.145 129.492C275.145 131.849 275.63 133.669 276.601 134.952C277.571 136.2 278.871 136.824 280.501 136.824C282.789 136.824 284.331 135.715 285.129 133.496H294.593C293.83 136.893 292.218 139.563 289.757 141.504C287.295 143.445 284.262 144.416 280.657 144.416C277.814 144.416 275.283 143.809 273.065 142.596C270.881 141.383 269.165 139.649 267.917 137.396C266.703 135.143 266.097 132.508 266.097 129.492ZM315.521 136.46V144H310.997C307.773 144 305.26 143.22 303.457 141.66C301.654 140.065 300.753 137.483 300.753 133.912V122.368H297.217V114.984H300.753V107.912H309.645V114.984H315.469V122.368H309.645V134.016C309.645 134.883 309.853 135.507 310.269 135.888C310.685 136.269 311.378 136.46 312.349 136.46H315.521ZM324.946 111.968C323.386 111.968 322.103 111.517 321.098 110.616C320.127 109.68 319.642 108.536 319.642 107.184C319.642 105.797 320.127 104.653 321.098 103.752C322.103 102.816 323.386 102.348 324.946 102.348C326.471 102.348 327.719 102.816 328.69 103.752C329.695 104.653 330.198 105.797 330.198 107.184C330.198 108.536 329.695 109.68 328.69 110.616C327.719 111.517 326.471 111.968 324.946 111.968ZM329.366 114.984V144H320.474V114.984H329.366ZM349.018 144.416C346.175 144.416 343.61 143.809 341.322 142.596C339.069 141.383 337.283 139.649 335.966 137.396C334.683 135.143 334.042 132.508 334.042 129.492C334.042 126.511 334.701 123.893 336.018 121.64C337.335 119.352 339.138 117.601 341.426 116.388C343.714 115.175 346.279 114.568 349.122 114.568C351.965 114.568 354.53 115.175 356.818 116.388C359.106 117.601 360.909 119.352 362.226 121.64C363.543 123.893 364.202 126.511 364.202 129.492C364.202 132.473 363.526 135.108 362.174 137.396C360.857 139.649 359.037 141.383 356.714 142.596C354.426 143.809 351.861 144.416 349.018 144.416ZM349.018 136.72C350.717 136.72 352.155 136.096 353.334 134.848C354.547 133.6 355.154 131.815 355.154 129.492C355.154 127.169 354.565 125.384 353.386 124.136C352.242 122.888 350.821 122.264 349.122 122.264C347.389 122.264 345.95 122.888 344.806 124.136C343.662 125.349 343.09 127.135 343.09 129.492C343.09 131.815 343.645 133.6 344.754 134.848C345.898 136.096 347.319 136.72 349.018 136.72ZM386.599 114.672C389.997 114.672 392.701 115.781 394.711 118C396.757 120.184 397.779 123.2 397.779 127.048V144H388.939V128.244C388.939 126.303 388.437 124.795 387.431 123.72C386.426 122.645 385.074 122.108 383.375 122.108C381.677 122.108 380.325 122.645 379.319 123.72C378.314 124.795 377.811 126.303 377.811 128.244V144H368.919V114.984H377.811V118.832C378.713 117.549 379.926 116.544 381.451 115.816C382.977 115.053 384.693 114.672 386.599 114.672Z" fill="#B88E2F"/>
<path d="M5.402 188.344H9.632V190H3.35V177.49H5.402V188.344ZM15.65 190.162C14.714 190.162 13.868 189.952 13.112 189.532C12.356 189.1 11.762 188.5 11.33 187.732C10.898 186.952 10.682 186.052 10.682 185.032C10.682 184.024 10.904 183.13 11.348 182.35C11.792 181.57 12.398 180.97 13.166 180.55C13.934 180.13 14.792 179.92 15.74 179.92C16.688 179.92 17.546 180.13 18.314 180.55C19.082 180.97 19.688 181.57 20.132 182.35C20.576 183.13 20.798 184.024 20.798 185.032C20.798 186.04 20.57 186.934 20.114 187.714C19.658 188.494 19.034 189.1 18.242 189.532C17.462 189.952 16.598 190.162 15.65 190.162ZM15.65 188.38C16.178 188.38 16.67 188.254 17.126 188.002C17.594 187.75 17.972 187.372 18.26 186.868C18.548 186.364 18.692 185.752 18.692 185.032C18.692 184.312 18.554 183.706 18.278 183.214C18.002 182.71 17.636 182.332 17.18 182.08C16.724 181.828 16.232 181.702 15.704 181.702C15.176 181.702 14.684 181.828 14.228 182.08C13.784 182.332 13.43 182.71 13.166 183.214C12.902 183.706 12.77 184.312 12.77 185.032C12.77 186.1 13.04 186.928 13.58 187.516C14.132 188.092 14.822 188.38 15.65 188.38ZM24.8786 181.522C25.1786 181.018 25.5746 180.628 26.0666 180.352C26.5706 180.064 27.1646 179.92 27.8486 179.92V182.044H27.3266C26.5226 182.044 25.9106 182.248 25.4906 182.656C25.0826 183.064 24.8786 183.772 24.8786 184.78V190H22.8266V180.082H24.8786V181.522ZM38.8248 184.798C38.8248 185.17 38.8008 185.506 38.7528 185.806H31.1748C31.2348 186.598 31.5288 187.234 32.0568 187.714C32.5848 188.194 33.2328 188.434 34.0008 188.434C35.1048 188.434 35.8848 187.972 36.3408 187.048H38.5548C38.2548 187.96 37.7088 188.71 36.9168 189.298C36.1368 189.874 35.1648 190.162 34.0008 190.162C33.0528 190.162 32.2008 189.952 31.4448 189.532C30.7008 189.1 30.1128 188.5 29.6808 187.732C29.2608 186.952 29.0508 186.052 29.0508 185.032C29.0508 184.012 29.2548 183.118 29.6628 182.35C30.0828 181.57 30.6648 180.97 31.4088 180.55C32.1648 180.13 33.0288 179.92 34.0008 179.92C34.9368 179.92 35.7708 180.124 36.5028 180.532C37.2348 180.94 37.8048 181.516 38.2128 182.26C38.6208 182.992 38.8248 183.838 38.8248 184.798ZM36.6828 184.15C36.6708 183.394 36.4008 182.788 35.8728 182.332C35.3448 181.876 34.6908 181.648 33.9108 181.648C33.2028 181.648 32.5968 181.876 32.0928 182.332C31.5888 182.776 31.2888 183.382 31.1928 184.15H36.6828ZM52.8501 179.92C53.6301 179.92 54.3261 180.082 54.9381 180.406C55.5621 180.73 56.0481 181.21 56.3961 181.846C56.7561 182.482 56.9361 183.25 56.9361 184.15V190H54.9021V184.456C54.9021 183.568 54.6801 182.89 54.2361 182.422C53.7921 181.942 53.1861 181.702 52.4181 181.702C51.6501 181.702 51.0381 181.942 50.5821 182.422C50.1381 182.89 49.9161 183.568 49.9161 184.456V190H47.8821V184.456C47.8821 183.568 47.6601 182.89 47.2161 182.422C46.7721 181.942 46.1661 181.702 45.3981 181.702C44.6301 181.702 44.0181 181.942 43.5621 182.422C43.1181 182.89 42.8961 183.568 42.8961 184.456V190H40.8441V180.082H42.8961V181.216C43.2321 180.808 43.6581 180.49 44.1741 180.262C44.6901 180.034 45.2421 179.92 45.8301 179.92C46.6221 179.92 47.3301 180.088 47.9541 180.424C48.5781 180.76 49.0581 181.246 49.3941 181.882C49.6941 181.282 50.1621 180.808 50.7981 180.46C51.4341 180.1 52.1181 179.92 52.8501 179.92ZM65.267 178.768C64.895 178.768 64.583 178.642 64.331 178.39C64.079 178.138 63.953 177.826 63.953 177.454C63.953 177.082 64.079 176.77 64.331 176.518C64.583 176.266 64.895 176.14 65.267 176.14C65.627 176.14 65.933 176.266 66.185 176.518C66.437 176.77 66.563 177.082 66.563 177.454C66.563 177.826 66.437 178.138 66.185 178.39C65.933 178.642 65.627 178.768 65.267 178.768ZM66.275 180.082V190H64.223V180.082H66.275ZM71.0211 181.54C71.3691 181.084 71.8431 180.7 72.4431 180.388C73.0431 180.076 73.7211 179.92 74.4771 179.92C75.3411 179.92 76.1271 180.136 76.8351 180.568C77.5551 180.988 78.1191 181.582 78.5271 182.35C78.9351 183.118 79.1391 184 79.1391 184.996C79.1391 185.992 78.9351 186.886 78.5271 187.678C78.1191 188.458 77.5551 189.07 76.8351 189.514C76.1271 189.946 75.3411 190.162 74.4771 190.162C73.7211 190.162 73.0491 190.012 72.4611 189.712C71.8731 189.4 71.3931 189.016 71.0211 188.56V194.716H68.9691V180.082H71.0211V181.54ZM77.0511 184.996C77.0511 184.312 76.9071 183.724 76.6191 183.232C76.3431 182.728 75.9711 182.35 75.5031 182.098C75.0471 181.834 74.5551 181.702 74.0271 181.702C73.5111 181.702 73.0191 181.834 72.5511 182.098C72.0951 182.362 71.7231 182.746 71.4351 183.25C71.1591 183.754 71.0211 184.348 71.0211 185.032C71.0211 185.716 71.1591 186.316 71.4351 186.832C71.7231 187.336 72.0951 187.72 72.5511 187.984C73.0191 188.248 73.5111 188.38 74.0271 188.38C74.5551 188.38 75.0471 188.248 75.5031 187.984C75.9711 187.708 76.3431 187.312 76.6191 186.796C76.9071 186.28 77.0511 185.68 77.0511 184.996ZM84.7684 190.162C83.9884 190.162 83.2864 190.024 82.6624 189.748C82.0504 189.46 81.5644 189.076 81.2044 188.596C80.8444 188.104 80.6524 187.558 80.6284 186.958H82.7524C82.7884 187.378 82.9864 187.732 83.3464 188.02C83.7184 188.296 84.1804 188.434 84.7324 188.434C85.3084 188.434 85.7524 188.326 86.0644 188.11C86.3884 187.882 86.5504 187.594 86.5504 187.246C86.5504 186.874 86.3704 186.598 86.0104 186.418C85.6624 186.238 85.1044 186.04 84.3364 185.824C83.5924 185.62 82.9864 185.422 82.5184 185.23C82.0504 185.038 81.6424 184.744 81.2944 184.348C80.9584 183.952 80.7904 183.43 80.7904 182.782C80.7904 182.254 80.9464 181.774 81.2584 181.342C81.5704 180.898 82.0144 180.55 82.5904 180.298C83.1784 180.046 83.8504 179.92 84.6064 179.92C85.7344 179.92 86.6404 180.208 87.3244 180.784C88.0204 181.348 88.3924 182.122 88.4404 183.106H86.3884C86.3524 182.662 86.1724 182.308 85.8484 182.044C85.5244 181.78 85.0864 181.648 84.5344 181.648C83.9944 181.648 83.5804 181.75 83.2924 181.954C83.0044 182.158 82.8604 182.428 82.8604 182.764C82.8604 183.028 82.9564 183.25 83.1484 183.43C83.3404 183.61 83.5744 183.754 83.8504 183.862C84.1264 183.958 84.5344 184.084 85.0744 184.24C85.7944 184.432 86.3824 184.63 86.8384 184.834C87.3064 185.026 87.7084 185.314 88.0444 185.698C88.3804 186.082 88.5544 186.592 88.5664 187.228C88.5664 187.792 88.4104 188.296 88.0984 188.74C87.7864 189.184 87.3424 189.532 86.7664 189.784C86.2024 190.036 85.5364 190.162 84.7684 190.162ZM99.7656 180.082V190H97.7136V188.83C97.3896 189.238 96.9636 189.562 96.4356 189.802C95.9196 190.03 95.3676 190.144 94.7796 190.144C93.9996 190.144 93.2976 189.982 92.6736 189.658C92.0616 189.334 91.5756 188.854 91.2156 188.218C90.8676 187.582 90.6936 186.814 90.6936 185.914V180.082H92.7276V185.608C92.7276 186.496 92.9496 187.18 93.3936 187.66C93.8376 188.128 94.4436 188.362 95.2116 188.362C95.9796 188.362 96.5856 188.128 97.0296 187.66C97.4856 187.18 97.7136 186.496 97.7136 185.608V180.082H99.7656ZM114.479 179.92C115.259 179.92 115.955 180.082 116.567 180.406C117.191 180.73 117.677 181.21 118.025 181.846C118.385 182.482 118.565 183.25 118.565 184.15V190H116.531V184.456C116.531 183.568 116.309 182.89 115.865 182.422C115.421 181.942 114.815 181.702 114.047 181.702C113.279 181.702 112.667 181.942 112.211 182.422C111.767 182.89 111.545 183.568 111.545 184.456V190H109.511V184.456C109.511 183.568 109.289 182.89 108.845 182.422C108.401 181.942 107.795 181.702 107.027 181.702C106.259 181.702 105.647 181.942 105.191 182.422C104.747 182.89 104.525 183.568 104.525 184.456V190H102.473V180.082H104.525V181.216C104.861 180.808 105.287 180.49 105.803 180.262C106.319 180.034 106.871 179.92 107.459 179.92C108.251 179.92 108.959 180.088 109.583 180.424C110.207 180.76 110.687 181.246 111.023 181.882C111.323 181.282 111.791 180.808 112.427 180.46C113.063 180.1 113.747 179.92 114.479 179.92ZM125.168 184.996C125.168 184 125.372 183.118 125.78 182.35C126.2 181.582 126.764 180.988 127.472 180.568C128.192 180.136 128.99 179.92 129.866 179.92C130.514 179.92 131.15 180.064 131.774 180.352C132.41 180.628 132.914 181 133.286 181.468V176.68H135.356V190H133.286V188.506C132.95 188.986 132.482 189.382 131.882 189.694C131.294 190.006 130.616 190.162 129.848 190.162C128.984 190.162 128.192 189.946 127.472 189.514C126.764 189.07 126.2 188.458 125.78 187.678C125.372 186.886 125.168 185.992 125.168 184.996ZM133.286 185.032C133.286 184.348 133.142 183.754 132.854 183.25C132.578 182.746 132.212 182.362 131.756 182.098C131.3 181.834 130.808 181.702 130.28 181.702C129.752 181.702 129.26 181.834 128.804 182.098C128.348 182.35 127.976 182.728 127.688 183.232C127.412 183.724 127.274 184.312 127.274 184.996C127.274 185.68 127.412 186.28 127.688 186.796C127.976 187.312 128.348 187.708 128.804 187.984C129.272 188.248 129.764 188.38 130.28 188.38C130.808 188.38 131.3 188.248 131.756 187.984C132.212 187.72 132.578 187.336 132.854 186.832C133.142 186.316 133.286 185.716 133.286 185.032ZM142.353 190.162C141.417 190.162 140.571 189.952 139.815 189.532C139.059 189.1 138.465 188.5 138.033 187.732C137.601 186.952 137.385 186.052 137.385 185.032C137.385 184.024 137.607 183.13 138.051 182.35C138.495 181.57 139.101 180.97 139.869 180.55C140.637 180.13 141.495 179.92 142.443 179.92C143.391 179.92 144.249 180.13 145.017 180.55C145.785 180.97 146.391 181.57 146.835 182.35C147.279 183.13 147.501 184.024 147.501 185.032C147.501 186.04 147.273 186.934 146.817 187.714C146.361 188.494 145.737 189.1 144.945 189.532C144.165 189.952 143.301 190.162 142.353 190.162ZM142.353 188.38C142.881 188.38 143.373 188.254 143.829 188.002C144.297 187.75 144.675 187.372 144.963 186.868C145.251 186.364 145.395 185.752 145.395 185.032C145.395 184.312 145.257 183.706 144.981 183.214C144.705 182.71 144.339 182.332 143.883 182.08C143.427 181.828 142.935 181.702 142.407 181.702C141.879 181.702 141.387 181.828 140.931 182.08C140.487 182.332 140.133 182.71 139.869 183.214C139.605 183.706 139.473 184.312 139.473 185.032C139.473 186.1 139.743 186.928 140.283 187.516C140.835 188.092 141.525 188.38 142.353 188.38ZM151.582 176.68V190H149.53V176.68H151.582ZM158.578 190.162C157.642 190.162 156.796 189.952 156.04 189.532C155.284 189.1 154.69 188.5 154.258 187.732C153.826 186.952 153.61 186.052 153.61 185.032C153.61 184.024 153.832 183.13 154.276 182.35C154.72 181.57 155.326 180.97 156.094 180.55C156.862 180.13 157.72 179.92 158.668 179.92C159.616 179.92 160.474 180.13 161.242 180.55C162.01 180.97 162.616 181.57 163.06 182.35C163.504 183.13 163.726 184.024 163.726 185.032C163.726 186.04 163.498 186.934 163.042 187.714C162.586 188.494 161.962 189.1 161.17 189.532C160.39 189.952 159.526 190.162 158.578 190.162ZM158.578 188.38C159.106 188.38 159.598 188.254 160.054 188.002C160.522 187.75 160.9 187.372 161.188 186.868C161.476 186.364 161.62 185.752 161.62 185.032C161.62 184.312 161.482 183.706 161.206 183.214C160.93 182.71 160.564 182.332 160.108 182.08C159.652 181.828 159.16 181.702 158.632 181.702C158.104 181.702 157.612 181.828 157.156 182.08C156.712 182.332 156.358 182.71 156.094 183.214C155.83 183.706 155.698 184.312 155.698 185.032C155.698 186.1 155.968 186.928 156.508 187.516C157.06 188.092 157.75 188.38 158.578 188.38ZM167.806 181.522C168.106 181.018 168.502 180.628 168.994 180.352C169.498 180.064 170.092 179.92 170.776 179.92V182.044H170.254C169.45 182.044 168.838 182.248 168.418 182.656C168.01 183.064 167.806 183.772 167.806 184.78V190H165.754V180.082H167.806V181.522ZM180.938 190.162C180.158 190.162 179.456 190.024 178.832 189.748C178.22 189.46 177.734 189.076 177.374 188.596C177.014 188.104 176.822 187.558 176.798 186.958H178.922C178.958 187.378 179.156 187.732 179.516 188.02C179.888 188.296 180.35 188.434 180.902 188.434C181.478 188.434 181.922 188.326 182.234 188.11C182.558 187.882 182.72 187.594 182.72 187.246C182.72 186.874 182.54 186.598 182.18 186.418C181.832 186.238 181.274 186.04 180.506 185.824C179.762 185.62 179.156 185.422 178.688 185.23C178.22 185.038 177.812 184.744 177.464 184.348C177.128 183.952 176.96 183.43 176.96 182.782C176.96 182.254 177.116 181.774 177.428 181.342C177.74 180.898 178.184 180.55 178.76 180.298C179.348 180.046 180.02 179.92 180.776 179.92C181.904 179.92 182.81 180.208 183.494 180.784C184.19 181.348 184.562 182.122 184.61 183.106H182.558C182.522 182.662 182.342 182.308 182.018 182.044C181.694 181.78 181.256 181.648 180.704 181.648C180.164 181.648 179.75 181.75 179.462 181.954C179.174 182.158 179.03 182.428 179.03 182.764C179.03 183.028 179.126 183.25 179.318 183.43C179.51 183.61 179.744 183.754 180.02 183.862C180.296 183.958 180.704 184.084 181.244 184.24C181.964 184.432 182.552 184.63 183.008 184.834C183.476 185.026 183.878 185.314 184.214 185.698C184.55 186.082 184.724 186.592 184.736 187.228C184.736 187.792 184.58 188.296 184.268 188.74C183.956 189.184 183.512 189.532 182.936 189.784C182.372 190.036 181.706 190.162 180.938 190.162ZM187.998 178.768C187.626 178.768 187.314 178.642 187.062 178.39C186.81 178.138 186.684 177.826 186.684 177.454C186.684 177.082 186.81 176.77 187.062 176.518C187.314 176.266 187.626 176.14 187.998 176.14C188.358 176.14 188.664 176.266 188.916 176.518C189.168 176.77 189.294 177.082 189.294 177.454C189.294 177.826 189.168 178.138 188.916 178.39C188.664 178.642 188.358 178.768 187.998 178.768ZM189.006 180.082V190H186.954V180.082H189.006ZM194.094 181.756V187.246C194.094 187.618 194.178 187.888 194.346 188.056C194.526 188.212 194.826 188.29 195.246 188.29H196.506V190H194.886C193.962 190 193.254 189.784 192.762 189.352C192.27 188.92 192.024 188.218 192.024 187.246V181.756H190.854V180.082H192.024V177.616H194.094V180.082H196.506V181.756H194.094ZM202.389 184.996C202.389 184 202.593 183.118 203.001 182.35C203.421 181.582 203.985 180.988 204.693 180.568C205.413 180.136 206.205 179.92 207.069 179.92C207.849 179.92 208.527 180.076 209.103 180.388C209.691 180.688 210.159 181.066 210.507 181.522V180.082H212.577V190H210.507V188.524C210.159 188.992 209.685 189.382 209.085 189.694C208.485 190.006 207.801 190.162 207.033 190.162C206.181 190.162 205.401 189.946 204.693 189.514C203.985 189.07 203.421 188.458 203.001 187.678C202.593 186.886 202.389 185.992 202.389 184.996ZM210.507 185.032C210.507 184.348 210.363 183.754 210.075 183.25C209.799 182.746 209.433 182.362 208.977 182.098C208.521 181.834 208.029 181.702 207.501 181.702C206.973 181.702 206.481 181.834 206.025 182.098C205.569 182.35 205.197 182.728 204.909 183.232C204.633 183.724 204.495 184.312 204.495 184.996C204.495 185.68 204.633 186.28 204.909 186.796C205.197 187.312 205.569 187.708 206.025 187.984C206.493 188.248 206.985 188.38 207.501 188.38C208.029 188.38 208.521 188.248 208.977 187.984C209.433 187.72 209.799 187.336 210.075 186.832C210.363 186.316 210.507 185.716 210.507 185.032ZM227.278 179.92C228.058 179.92 228.754 180.082 229.366 180.406C229.99 180.73 230.476 181.21 230.824 181.846C231.184 182.482 231.364 183.25 231.364 184.15V190H229.33V184.456C229.33 183.568 229.108 182.89 228.664 182.422C228.22 181.942 227.614 181.702 226.846 181.702C226.078 181.702 225.466 181.942 225.01 182.422C224.566 182.89 224.344 183.568 224.344 184.456V190H222.31V184.456C222.31 183.568 222.088 182.89 221.644 182.422C221.2 181.942 220.594 181.702 219.826 181.702C219.058 181.702 218.446 181.942 217.99 182.422C217.546 182.89 217.324 183.568 217.324 184.456V190H215.272V180.082H217.324V181.216C217.66 180.808 218.086 180.49 218.602 180.262C219.118 180.034 219.67 179.92 220.258 179.92C221.05 179.92 221.758 180.088 222.382 180.424C223.006 180.76 223.486 181.246 223.822 181.882C224.122 181.282 224.59 180.808 225.226 180.46C225.862 180.1 226.546 179.92 227.278 179.92ZM243.065 184.798C243.065 185.17 243.041 185.506 242.993 185.806H235.415C235.475 186.598 235.769 187.234 236.297 187.714C236.825 188.194 237.473 188.434 238.241 188.434C239.345 188.434 240.125 187.972 240.581 187.048H242.795C242.495 187.96 241.949 188.71 241.157 189.298C240.377 189.874 239.405 190.162 238.241 190.162C237.293 190.162 236.441 189.952 235.685 189.532C234.941 189.1 234.353 188.5 233.921 187.732C233.501 186.952 233.291 186.052 233.291 185.032C233.291 184.012 233.495 183.118 233.903 182.35C234.323 181.57 234.905 180.97 235.649 180.55C236.405 180.13 237.269 179.92 238.241 179.92C239.177 179.92 240.011 180.124 240.743 180.532C241.475 180.94 242.045 181.516 242.453 182.26C242.861 182.992 243.065 183.838 243.065 184.798ZM240.923 184.15C240.911 183.394 240.641 182.788 240.113 182.332C239.585 181.876 238.931 181.648 238.151 181.648C237.443 181.648 236.837 181.876 236.333 182.332C235.829 182.776 235.529 183.382 235.433 184.15H240.923ZM247.478 181.756V187.246C247.478 187.618 247.562 187.888 247.73 188.056C247.91 188.212 248.21 188.29 248.63 188.29H249.89V190H248.27C247.346 190 246.638 189.784 246.146 189.352C245.654 188.92 245.408 188.218 245.408 187.246V181.756H244.238V180.082H245.408V177.616H247.478V180.082H249.89V181.756H247.478ZM254.032 187.534L251.854 192.502H250.522L251.8 187.534H254.032ZM259.816 185.032C259.816 184.012 260.02 183.118 260.428 182.35C260.848 181.57 261.424 180.97 262.156 180.55C262.888 180.13 263.728 179.92 264.676 179.92C265.876 179.92 266.866 180.208 267.646 180.784C268.438 181.348 268.972 182.158 269.248 183.214H267.034C266.854 182.722 266.566 182.338 266.17 182.062C265.774 181.786 265.276 181.648 264.676 181.648C263.836 181.648 263.164 181.948 262.66 182.548C262.168 183.136 261.922 183.964 261.922 185.032C261.922 186.1 262.168 186.934 262.66 187.534C263.164 188.134 263.836 188.434 264.676 188.434C265.864 188.434 266.65 187.912 267.034 186.868H269.248C268.96 187.876 268.42 188.68 267.628 189.28C266.836 189.868 265.852 190.162 264.676 190.162C263.728 190.162 262.888 189.952 262.156 189.532C261.424 189.1 260.848 188.5 260.428 187.732C260.02 186.952 259.816 186.052 259.816 185.032ZM275.595 190.162C274.659 190.162 273.813 189.952 273.057 189.532C272.301 189.1 271.707 188.5 271.275 187.732C270.843 186.952 270.627 186.052 270.627 185.032C270.627 184.024 270.849 183.13 271.293 182.35C271.737 181.57 272.343 180.97 273.111 180.55C273.879 180.13 274.737 179.92 275.685 179.92C276.633 179.92 277.491 180.13 278.259 180.55C279.027 180.97 279.633 181.57 280.077 182.35C280.521 183.13 280.743 184.024 280.743 185.032C280.743 186.04 280.515 186.934 280.059 187.714C279.603 188.494 278.979 189.1 278.187 189.532C277.407 189.952 276.543 190.162 275.595 190.162ZM275.595 188.38C276.123 188.38 276.615 188.254 277.071 188.002C277.539 187.75 277.917 187.372 278.205 186.868C278.493 186.364 278.637 185.752 278.637 185.032C278.637 184.312 278.499 183.706 278.223 183.214C277.947 182.71 277.581 182.332 277.125 182.08C276.669 181.828 276.177 181.702 275.649 181.702C275.121 181.702 274.629 181.828 274.173 182.08C273.729 182.332 273.375 182.71 273.111 183.214C272.847 183.706 272.715 184.312 272.715 185.032C272.715 186.1 272.985 186.928 273.525 187.516C274.077 188.092 274.767 188.38 275.595 188.38ZM287.776 179.92C288.556 179.92 289.252 180.082 289.864 180.406C290.488 180.73 290.974 181.21 291.322 181.846C291.67 182.482 291.844 183.25 291.844 184.15V190H289.81V184.456C289.81 183.568 289.588 182.89 289.144 182.422C288.7 181.942 288.094 181.702 287.326 181.702C286.558 181.702 285.946 181.942 285.49 182.422C285.046 182.89 284.824 183.568 284.824 184.456V190H282.772V180.082H284.824V181.216C285.16 180.808 285.586 180.49 286.102 180.262C286.63 180.034 287.188 179.92 287.776 179.92ZM298.061 190.162C297.281 190.162 296.579 190.024 295.955 189.748C295.343 189.46 294.857 189.076 294.497 188.596C294.137 188.104 293.945 187.558 293.921 186.958H296.045C296.081 187.378 296.279 187.732 296.639 188.02C297.011 188.296 297.473 188.434 298.025 188.434C298.601 188.434 299.045 188.326 299.357 188.11C299.681 187.882 299.843 187.594 299.843 187.246C299.843 186.874 299.663 186.598 299.303 186.418C298.955 186.238 298.397 186.04 297.629 185.824C296.885 185.62 296.279 185.422 295.811 185.23C295.343 185.038 294.935 184.744 294.587 184.348C294.251 183.952 294.083 183.43 294.083 182.782C294.083 182.254 294.239 181.774 294.551 181.342C294.863 180.898 295.307 180.55 295.883 180.298C296.471 180.046 297.143 179.92 297.899 179.92C299.027 179.92 299.933 180.208 300.617 180.784C301.313 181.348 301.685 182.122 301.733 183.106H299.681C299.645 182.662 299.465 182.308 299.141 182.044C298.817 181.78 298.379 181.648 297.827 181.648C297.287 181.648 296.873 181.75 296.585 181.954C296.297 182.158 296.153 182.428 296.153 182.764C296.153 183.028 296.249 183.25 296.441 183.43C296.633 183.61 296.867 183.754 297.143 183.862C297.419 183.958 297.827 184.084 298.367 184.24C299.087 184.432 299.675 184.63 300.131 184.834C300.599 185.026 301.001 185.314 301.337 185.698C301.673 186.082 301.847 186.592 301.859 187.228C301.859 187.792 301.703 188.296 301.391 188.74C301.079 189.184 300.635 189.532 300.059 189.784C299.495 190.036 298.829 190.162 298.061 190.162ZM313.167 184.798C313.167 185.17 313.143 185.506 313.095 185.806H305.517C305.577 186.598 305.871 187.234 306.399 187.714C306.927 188.194 307.575 188.434 308.343 188.434C309.447 188.434 310.227 187.972 310.683 187.048H312.897C312.597 187.96 312.051 188.71 311.259 189.298C310.479 189.874 309.507 190.162 308.343 190.162C307.395 190.162 306.543 189.952 305.787 189.532C305.043 189.1 304.455 188.5 304.023 187.732C303.603 186.952 303.393 186.052 303.393 185.032C303.393 184.012 303.597 183.118 304.005 182.35C304.425 181.57 305.007 180.97 305.751 180.55C306.507 180.13 307.371 179.92 308.343 179.92C309.279 179.92 310.113 180.124 310.845 180.532C311.577 180.94 312.147 181.516 312.555 182.26C312.963 182.992 313.167 183.838 313.167 184.798ZM311.025 184.15C311.013 183.394 310.743 182.788 310.215 182.332C309.687 181.876 309.033 181.648 308.253 181.648C307.545 181.648 306.939 181.876 306.435 182.332C305.931 182.776 305.631 183.382 305.535 184.15H311.025ZM314.502 185.032C314.502 184.012 314.706 183.118 315.114 182.35C315.534 181.57 316.11 180.97 316.842 180.55C317.574 180.13 318.414 179.92 319.362 179.92C320.562 179.92 321.552 180.208 322.332 180.784C323.124 181.348 323.658 182.158 323.934 183.214H321.72C321.54 182.722 321.252 182.338 320.856 182.062C320.46 181.786 319.962 181.648 319.362 181.648C318.522 181.648 317.85 181.948 317.346 182.548C316.854 183.136 316.608 183.964 316.608 185.032C316.608 186.1 316.854 186.934 317.346 187.534C317.85 188.134 318.522 188.434 319.362 188.434C320.55 188.434 321.336 187.912 321.72 186.868H323.934C323.646 187.876 323.106 188.68 322.314 189.28C321.522 189.868 320.538 190.162 319.362 190.162C318.414 190.162 317.574 189.952 316.842 189.532C316.11 189.1 315.534 188.5 315.114 187.732C314.706 186.952 314.502 186.052 314.502 185.032ZM328.373 181.756V187.246C328.373 187.618 328.457 187.888 328.625 188.056C328.805 188.212 329.105 188.29 329.525 188.29H330.785V190H329.165C328.241 190 327.533 189.784 327.041 189.352C326.549 188.92 326.303 188.218 326.303 187.246V181.756H325.133V180.082H326.303V177.616H328.373V180.082H330.785V181.756H328.373ZM341.766 184.798C341.766 185.17 341.742 185.506 341.694 185.806H334.116C334.176 186.598 334.47 187.234 334.998 187.714C335.526 188.194 336.174 188.434 336.942 188.434C338.046 188.434 338.826 187.972 339.282 187.048H341.496C341.196 187.96 340.65 188.71 339.858 189.298C339.078 189.874 338.106 190.162 336.942 190.162C335.994 190.162 335.142 189.952 334.386 189.532C333.642 189.1 333.054 188.5 332.622 187.732C332.202 186.952 331.992 186.052 331.992 185.032C331.992 184.012 332.196 183.118 332.604 182.35C333.024 181.57 333.606 180.97 334.35 180.55C335.106 180.13 335.97 179.92 336.942 179.92C337.878 179.92 338.712 180.124 339.444 180.532C340.176 180.94 340.746 181.516 341.154 182.26C341.562 182.992 341.766 183.838 341.766 184.798ZM339.624 184.15C339.612 183.394 339.342 182.788 338.814 182.332C338.286 181.876 337.632 181.648 336.852 181.648C336.144 181.648 335.538 181.876 335.034 182.332C334.53 182.776 334.23 183.382 334.134 184.15H339.624ZM346.18 181.756V187.246C346.18 187.618 346.264 187.888 346.432 188.056C346.612 188.212 346.912 188.29 347.332 188.29H348.592V190H346.972C346.048 190 345.34 189.784 344.848 189.352C344.356 188.92 344.11 188.218 344.11 187.246V181.756H342.94V180.082H344.11V177.616H346.18V180.082H348.592V181.756H346.18ZM359.465 180.082V190H357.413V188.83C357.089 189.238 356.663 189.562 356.135 189.802C355.619 190.03 355.067 190.144 354.479 190.144C353.699 190.144 352.997 189.982 352.373 189.658C351.761 189.334 351.275 188.854 350.915 188.218C350.567 187.582 350.393 186.814 350.393 185.914V180.082H352.427V185.608C352.427 186.496 352.649 187.18 353.093 187.66C353.537 188.128 354.143 188.362 354.911 188.362C355.679 188.362 356.285 188.128 356.729 187.66C357.185 187.18 357.413 186.496 357.413 185.608V180.082H359.465ZM364.224 181.522C364.524 181.018 364.92 180.628 365.412 180.352C365.916 180.064 366.51 179.92 367.194 179.92V182.044H366.672C365.868 182.044 365.256 182.248 364.836 182.656C364.428 183.064 364.224 183.772 364.224 184.78V190H362.172V180.082H364.224V181.522ZM373.072 184.996C373.072 184 373.276 183.118 373.684 182.35C374.104 181.582 374.668 180.988 375.376 180.568C376.096 180.136 376.888 179.92 377.752 179.92C378.532 179.92 379.21 180.076 379.786 180.388C380.374 180.688 380.842 181.066 381.19 181.522V180.082H383.26V190H381.19V188.524C380.842 188.992 380.368 189.382 379.768 189.694C379.168 190.006 378.484 190.162 377.716 190.162C376.864 190.162 376.084 189.946 375.376 189.514C374.668 189.07 374.104 188.458 373.684 187.678C373.276 186.886 373.072 185.992 373.072 184.996ZM381.19 185.032C381.19 184.348 381.046 183.754 380.758 183.25C380.482 182.746 380.116 182.362 379.66 182.098C379.204 181.834 378.712 181.702 378.184 181.702C377.656 181.702 377.164 181.834 376.708 182.098C376.252 182.35 375.88 182.728 375.592 183.232C375.316 183.724 375.178 184.312 375.178 184.996C375.178 185.68 375.316 186.28 375.592 186.796C375.88 187.312 376.252 187.708 376.708 187.984C377.176 188.248 377.668 188.38 378.184 188.38C378.712 188.38 379.204 188.248 379.66 187.984C380.116 187.72 380.482 187.336 380.758 186.832C381.046 186.316 381.19 185.716 381.19 185.032ZM385.271 184.996C385.271 184 385.475 183.118 385.883 182.35C386.303 181.582 386.867 180.988 387.575 180.568C388.295 180.136 389.093 179.92 389.969 179.92C390.617 179.92 391.253 180.064 391.877 180.352C392.513 180.628 393.017 181 393.389 181.468V176.68H395.459V190H393.389V188.506C393.053 188.986 392.585 189.382 391.985 189.694C391.397 190.006 390.719 190.162 389.951 190.162C389.087 190.162 388.295 189.946 387.575 189.514C386.867 189.07 386.303 188.458 385.883 187.678C385.475 186.886 385.271 185.992 385.271 184.996ZM393.389 185.032C393.389 184.348 393.245 183.754 392.957 183.25C392.681 182.746 392.315 182.362 391.859 182.098C391.403 181.834 390.911 181.702 390.383 181.702C389.855 181.702 389.363 181.834 388.907 182.098C388.451 182.35 388.079 182.728 387.791 183.232C387.515 183.724 387.377 184.312 387.377 184.996C387.377 185.68 387.515 186.28 387.791 186.796C388.079 187.312 388.451 187.708 388.907 187.984C389.375 188.248 389.867 188.38 390.383 188.38C390.911 188.38 391.403 188.248 391.859 187.984C392.315 187.72 392.681 187.336 392.957 186.832C393.245 186.316 393.389 185.716 393.389 185.032ZM399.199 178.768C398.827 178.768 398.515 178.642 398.263 178.39C398.011 178.138 397.885 177.826 397.885 177.454C397.885 177.082 398.011 176.77 398.263 176.518C398.515 176.266 398.827 176.14 399.199 176.14C399.559 176.14 399.865 176.266 400.117 176.518C400.369 176.77 400.495 177.082 400.495 177.454C400.495 177.826 400.369 178.138 400.117 178.39C399.865 178.642 399.559 178.768 399.199 178.768ZM400.207 180.082V190H398.155V180.082H400.207ZM404.953 181.54C405.301 181.084 405.775 180.7 406.375 180.388C406.975 180.076 407.653 179.92 408.409 179.92C409.273 179.92 410.059 180.136 410.767 180.568C411.487 180.988 412.051 181.582 412.459 182.35C412.867 183.118 413.071 184 413.071 184.996C413.071 185.992 412.867 186.886 412.459 187.678C412.051 188.458 411.487 189.07 410.767 189.514C410.059 189.946 409.273 190.162 408.409 190.162C407.653 190.162 406.981 190.012 406.393 189.712C405.805 189.4 405.325 189.016 404.953 188.56V194.716H402.901V180.082H404.953V181.54ZM410.983 184.996C410.983 184.312 410.839 183.724 410.551 183.232C410.275 182.728 409.903 182.35 409.435 182.098C408.979 181.834 408.487 181.702 407.959 181.702C407.443 181.702 406.951 181.834 406.483 182.098C406.027 182.362 405.655 182.746 405.367 183.25C405.091 183.754 404.953 184.348 404.953 185.032C404.953 185.716 405.091 186.316 405.367 186.832C405.655 187.336 406.027 187.72 406.483 187.984C406.951 188.248 407.443 188.38 407.959 188.38C408.487 188.38 408.979 188.248 409.435 187.984C409.903 187.708 410.275 187.312 410.551 186.796C410.839 186.28 410.983 185.68 410.983 184.996ZM416.144 178.768C415.772 178.768 415.46 178.642 415.208 178.39C414.956 178.138 414.83 177.826 414.83 177.454C414.83 177.082 414.956 176.77 415.208 176.518C415.46 176.266 415.772 176.14 416.144 176.14C416.504 176.14 416.81 176.266 417.062 176.518C417.314 176.77 417.44 177.082 417.44 177.454C417.44 177.826 417.314 178.138 417.062 178.39C416.81 178.642 416.504 178.768 416.144 178.768ZM417.152 180.082V190H415.1V180.082H417.152ZM423.446 190.162C422.666 190.162 421.964 190.024 421.34 189.748C420.728 189.46 420.242 189.076 419.882 188.596C419.522 188.104 419.33 187.558 419.306 186.958H421.43C421.466 187.378 421.664 187.732 422.024 188.02C422.396 188.296 422.858 188.434 423.41 188.434C423.986 188.434 424.43 188.326 424.742 188.11C425.066 187.882 425.228 187.594 425.228 187.246C425.228 186.874 425.048 186.598 424.688 186.418C424.34 186.238 423.782 186.04 423.014 185.824C422.27 185.62 421.664 185.422 421.196 185.23C420.728 185.038 420.32 184.744 419.972 184.348C419.636 183.952 419.468 183.43 419.468 182.782C419.468 182.254 419.624 181.774 419.936 181.342C420.248 180.898 420.692 180.55 421.268 180.298C421.856 180.046 422.528 179.92 423.284 179.92C424.412 179.92 425.318 180.208 426.002 180.784C426.698 181.348 427.07 182.122 427.118 183.106H425.066C425.03 182.662 424.85 182.308 424.526 182.044C424.202 181.78 423.764 181.648 423.212 181.648C422.672 181.648 422.258 181.75 421.97 181.954C421.682 182.158 421.538 182.428 421.538 182.764C421.538 183.028 421.634 183.25 421.826 183.43C422.018 183.61 422.252 183.754 422.528 183.862C422.804 183.958 423.212 184.084 423.752 184.24C424.472 184.432 425.06 184.63 425.516 184.834C425.984 185.026 426.386 185.314 426.722 185.698C427.058 186.082 427.232 186.592 427.244 187.228C427.244 187.792 427.088 188.296 426.776 188.74C426.464 189.184 426.02 189.532 425.444 189.784C424.88 190.036 424.214 190.162 423.446 190.162ZM428.777 185.032C428.777 184.012 428.981 183.118 429.389 182.35C429.809 181.57 430.385 180.97 431.117 180.55C431.849 180.13 432.689 179.92 433.637 179.92C434.837 179.92 435.827 180.208 436.607 180.784C437.399 181.348 437.933 182.158 438.209 183.214H435.995C435.815 182.722 435.527 182.338 435.131 182.062C434.735 181.786 434.237 181.648 433.637 181.648C432.797 181.648 432.125 181.948 431.621 182.548C431.129 183.136 430.883 183.964 430.883 185.032C430.883 186.1 431.129 186.934 431.621 187.534C432.125 188.134 432.797 188.434 433.637 188.434C434.825 188.434 435.611 187.912 435.995 186.868H438.209C437.921 187.876 437.381 188.68 436.589 189.28C435.797 189.868 434.813 190.162 433.637 190.162C432.689 190.162 431.849 189.952 431.117 189.532C430.385 189.1 429.809 188.5 429.389 187.732C428.981 186.952 428.777 186.052 428.777 185.032ZM441.298 178.768C440.926 178.768 440.614 178.642 440.362 178.39C440.11 178.138 439.984 177.826 439.984 177.454C439.984 177.082 440.11 176.77 440.362 176.518C440.614 176.266 440.926 176.14 441.298 176.14C441.658 176.14 441.964 176.266 442.216 176.518C442.468 176.77 442.594 177.082 442.594 177.454C442.594 177.826 442.468 178.138 442.216 178.39C441.964 178.642 441.658 178.768 441.298 178.768ZM442.306 180.082V190H440.254V180.082H442.306ZM450.004 179.92C450.784 179.92 451.48 180.082 452.092 180.406C452.716 180.73 453.202 181.21 453.55 181.846C453.898 182.482 454.072 183.25 454.072 184.15V190H452.038V184.456C452.038 183.568 451.816 182.89 451.372 182.422C450.928 181.942 450.322 181.702 449.554 181.702C448.786 181.702 448.174 181.942 447.718 182.422C447.274 182.89 447.052 183.568 447.052 184.456V190H445V180.082H447.052V181.216C447.388 180.808 447.814 180.49 448.33 180.262C448.858 180.034 449.416 179.92 450.004 179.92ZM460.686 179.92C461.454 179.92 462.132 180.076 462.72 180.388C463.32 180.688 463.788 181.066 464.124 181.522V180.082H466.194V190.162C466.194 191.074 466.002 191.884 465.618 192.592C465.234 193.312 464.676 193.876 463.944 194.284C463.224 194.692 462.36 194.896 461.352 194.896C460.008 194.896 458.892 194.578 458.004 193.942C457.116 193.318 456.612 192.466 456.492 191.386H458.526C458.682 191.902 459.012 192.316 459.516 192.628C460.032 192.952 460.644 193.114 461.352 193.114C462.18 193.114 462.846 192.862 463.35 192.358C463.866 191.854 464.124 191.122 464.124 190.162V188.506C463.776 188.974 463.302 189.37 462.702 189.694C462.114 190.006 461.442 190.162 460.686 190.162C459.822 190.162 459.03 189.946 458.31 189.514C457.602 189.07 457.038 188.458 456.618 187.678C456.21 186.886 456.006 185.992 456.006 184.996C456.006 184 456.21 183.118 456.618 182.35C457.038 181.582 457.602 180.988 458.31 180.568C459.03 180.136 459.822 179.92 460.686 179.92ZM464.124 185.032C464.124 184.348 463.98 183.754 463.692 183.25C463.416 182.746 463.05 182.362 462.594 182.098C462.138 181.834 461.646 181.702 461.118 181.702C460.59 181.702 460.098 181.834 459.642 182.098C459.186 182.35 458.814 182.728 458.526 183.232C458.25 183.724 458.112 184.312 458.112 184.996C458.112 185.68 458.25 186.28 458.526 186.796C458.814 187.312 459.186 187.708 459.642 187.984C460.11 188.248 460.602 188.38 461.118 188.38C461.646 188.38 462.138 188.248 462.594 187.984C463.05 187.72 463.416 187.336 463.692 186.832C463.98 186.316 464.124 185.716 464.124 185.032ZM482.655 184.798C482.655 185.17 482.631 185.506 482.583 185.806H475.005C475.065 186.598 475.359 187.234 475.887 187.714C476.415 188.194 477.063 188.434 477.831 188.434C478.935 188.434 479.715 187.972 480.171 187.048H482.385C482.085 187.96 481.539 188.71 480.747 189.298C479.967 189.874 478.995 190.162 477.831 190.162C476.883 190.162 476.031 189.952 475.275 189.532C474.531 189.1 473.943 188.5 473.511 187.732C473.091 186.952 472.881 186.052 472.881 185.032C472.881 184.012 473.085 183.118 473.493 182.35C473.913 181.57 474.495 180.97 475.239 180.55C475.995 180.13 476.859 179.92 477.831 179.92C478.767 179.92 479.601 180.124 480.333 180.532C481.065 180.94 481.635 181.516 482.043 182.26C482.451 182.992 482.655 183.838 482.655 184.798ZM480.513 184.15C480.501 183.394 480.231 182.788 479.703 182.332C479.175 181.876 478.521 181.648 477.741 181.648C477.033 181.648 476.427 181.876 475.923 182.332C475.419 182.776 475.119 183.382 475.023 184.15H480.513ZM486.726 176.68V190H484.674V176.68H486.726ZM490.464 178.768C490.092 178.768 489.78 178.642 489.528 178.39C489.276 178.138 489.15 177.826 489.15 177.454C489.15 177.082 489.276 176.77 489.528 176.518C489.78 176.266 490.092 176.14 490.464 176.14C490.824 176.14 491.13 176.266 491.382 176.518C491.634 176.77 491.76 177.082 491.76 177.454C491.76 177.826 491.634 178.138 491.382 178.39C491.13 178.642 490.824 178.768 490.464 178.768ZM491.472 180.082V190H489.42V180.082H491.472ZM496.56 181.756V187.246C496.56 187.618 496.644 187.888 496.812 188.056C496.992 188.212 497.292 188.29 497.712 188.29H498.972V190H497.352C496.428 190 495.72 189.784 495.228 189.352C494.736 188.92 494.49 188.218 494.49 187.246V181.756H493.32V180.082H494.49V177.616H496.56V180.082H498.972V181.756H496.56ZM501.692 190.126C501.32 190.126 501.008 190 500.756 189.748C500.504 189.496 500.378 189.184 500.378 188.812C500.378 188.44 500.504 188.128 500.756 187.876C501.008 187.624 501.32 187.498 501.692 187.498C502.052 187.498 502.358 187.624 502.61 187.876C502.862 188.128 502.988 188.44 502.988 188.812C502.988 189.184 502.862 189.496 502.61 189.748C502.358 190 502.052 190.126 501.692 190.126ZM511.915 177.49V185.464C511.915 186.412 512.161 187.126 512.653 187.606C513.157 188.086 513.853 188.326 514.741 188.326C515.641 188.326 516.337 188.086 516.829 187.606C517.333 187.126 517.585 186.412 517.585 185.464V177.49H519.637V185.428C519.637 186.448 519.415 187.312 518.971 188.02C518.527 188.728 517.933 189.256 517.189 189.604C516.445 189.952 515.623 190.126 514.723 190.126C513.823 190.126 513.001 189.952 512.257 189.604C511.525 189.256 510.943 188.728 510.511 188.02C510.079 187.312 509.863 186.448 509.863 185.428V177.49H511.915ZM524.703 181.756V187.246C524.703 187.618 524.787 187.888 524.955 188.056C525.135 188.212 525.435 188.29 525.855 188.29H527.115V190H525.495C524.571 190 523.863 189.784 523.371 189.352C522.879 188.92 522.633 188.218 522.633 187.246V181.756H521.463V180.082H522.633V177.616H524.703V180.082H527.115V181.756H524.703ZM12.44 208.798C12.44 209.17 12.416 209.506 12.368 209.806H4.79C4.85 210.598 5.144 211.234 5.672 211.714C6.2 212.194 6.848 212.434 7.616 212.434C8.72 212.434 9.5 211.972 9.956 211.048H12.17C11.87 211.96 11.324 212.71 10.532 213.298C9.752 213.874 8.78 214.162 7.616 214.162C6.668 214.162 5.816 213.952 5.06 213.532C4.316 213.1 3.728 212.5 3.296 211.732C2.876 210.952 2.666 210.052 2.666 209.032C2.666 208.012 2.87 207.118 3.278 206.35C3.698 205.57 4.28 204.97 5.024 204.55C5.78 204.13 6.644 203.92 7.616 203.92C8.552 203.92 9.386 204.124 10.118 204.532C10.85 204.94 11.42 205.516 11.828 206.26C12.236 206.992 12.44 207.838 12.44 208.798ZM10.298 208.15C10.286 207.394 10.016 206.788 9.488 206.332C8.96 205.876 8.306 205.648 7.526 205.648C6.818 205.648 6.212 205.876 5.708 206.332C5.204 206.776 4.904 207.382 4.808 208.15H10.298ZM16.5114 200.68V214H14.4594V200.68H16.5114ZM20.2495 202.768C19.8775 202.768 19.5655 202.642 19.3135 202.39C19.0615 202.138 18.9355 201.826 18.9355 201.454C18.9355 201.082 19.0615 200.77 19.3135 200.518C19.5655 200.266 19.8775 200.14 20.2495 200.14C20.6095 200.14 20.9155 200.266 21.1675 200.518C21.4195 200.77 21.5455 201.082 21.5455 201.454C21.5455 201.826 21.4195 202.138 21.1675 202.39C20.9155 202.642 20.6095 202.768 20.2495 202.768ZM21.2575 204.082V214H19.2055V204.082H21.2575ZM26.3456 205.756V211.246C26.3456 211.618 26.4296 211.888 26.5976 212.056C26.7776 212.212 27.0776 212.29 27.4976 212.29H28.7576V214H27.1376C26.2136 214 25.5056 213.784 25.0136 213.352C24.5216 212.92 24.2756 212.218 24.2756 211.246V205.756H23.1056V204.082H24.2756V201.616H26.3456V204.082H28.7576V205.756H26.3456ZM37.7186 205.756V211.246C37.7186 211.618 37.8026 211.888 37.9706 212.056C38.1506 212.212 38.4506 212.29 38.8706 212.29H40.1306V214H38.5106C37.5866 214 36.8786 213.784 36.3866 213.352C35.8946 212.92 35.6486 212.218 35.6486 211.246V205.756H34.4786V204.082H35.6486V201.616H37.7186V204.082H40.1306V205.756H37.7186ZM51.1119 208.798C51.1119 209.17 51.0879 209.506 51.0399 209.806H43.4619C43.5219 210.598 43.8159 211.234 44.3439 211.714C44.8719 212.194 45.5199 212.434 46.2879 212.434C47.3919 212.434 48.1719 211.972 48.6279 211.048H50.8419C50.5419 211.96 49.9959 212.71 49.2039 213.298C48.4239 213.874 47.4519 214.162 46.2879 214.162C45.3399 214.162 44.4879 213.952 43.7319 213.532C42.9879 213.1 42.3999 212.5 41.9679 211.732C41.5479 210.952 41.3379 210.052 41.3379 209.032C41.3379 208.012 41.5419 207.118 41.9499 206.35C42.3699 205.57 42.9519 204.97 43.6959 204.55C44.4519 204.13 45.3159 203.92 46.2879 203.92C47.2239 203.92 48.0579 204.124 48.7899 204.532C49.5219 204.94 50.0919 205.516 50.4999 206.26C50.9079 206.992 51.1119 207.838 51.1119 208.798ZM48.9699 208.15C48.9579 207.394 48.6879 206.788 48.1599 206.332C47.6319 205.876 46.9779 205.648 46.1979 205.648C45.4899 205.648 44.8839 205.876 44.3799 206.332C43.8759 206.776 43.5759 207.382 43.4799 208.15H48.9699ZM55.1833 200.68V214H53.1313V200.68H55.1833ZM59.9293 200.68V214H57.8773V200.68H59.9293ZM71.6054 204.082V214H69.5534V212.83C69.2294 213.238 68.8034 213.562 68.2754 213.802C67.7594 214.03 67.2074 214.144 66.6194 214.144C65.8394 214.144 65.1374 213.982 64.5134 213.658C63.9014 213.334 63.4154 212.854 63.0554 212.218C62.7074 211.582 62.5334 210.814 62.5334 209.914V204.082H64.5674V209.608C64.5674 210.496 64.7894 211.18 65.2334 211.66C65.6774 212.128 66.2834 212.362 67.0514 212.362C67.8194 212.362 68.4254 212.128 68.8694 211.66C69.3254 211.18 69.5534 210.496 69.5534 209.608V204.082H71.6054ZM77.9129 214.162C77.1329 214.162 76.4309 214.024 75.8069 213.748C75.1949 213.46 74.7089 213.076 74.3489 212.596C73.9889 212.104 73.7969 211.558 73.7729 210.958H75.8969C75.9329 211.378 76.1309 211.732 76.4909 212.02C76.8629 212.296 77.3249 212.434 77.8769 212.434C78.4529 212.434 78.8969 212.326 79.2089 212.11C79.5329 211.882 79.6949 211.594 79.6949 211.246C79.6949 210.874 79.5149 210.598 79.1549 210.418C78.8069 210.238 78.2489 210.04 77.4809 209.824C76.7369 209.62 76.1309 209.422 75.6629 209.23C75.1949 209.038 74.7869 208.744 74.4389 208.348C74.1029 207.952 73.9349 207.43 73.9349 206.782C73.9349 206.254 74.0909 205.774 74.4029 205.342C74.7149 204.898 75.1589 204.55 75.7349 204.298C76.3229 204.046 76.9949 203.92 77.7509 203.92C78.8789 203.92 79.7849 204.208 80.4689 204.784C81.1649 205.348 81.5369 206.122 81.5849 207.106H79.5329C79.4969 206.662 79.3169 206.308 78.9929 206.044C78.6689 205.78 78.2309 205.648 77.6789 205.648C77.1389 205.648 76.7249 205.75 76.4369 205.954C76.1489 206.158 76.0049 206.428 76.0049 206.764C76.0049 207.028 76.1009 207.25 76.2929 207.43C76.4849 207.61 76.7189 207.754 76.9949 207.862C77.2709 207.958 77.6789 208.084 78.2189 208.24C78.9389 208.432 79.5269 208.63 79.9829 208.834C80.4509 209.026 80.8529 209.314 81.1889 209.698C81.5249 210.082 81.6989 210.592 81.7109 211.228C81.7109 211.792 81.5549 212.296 81.2429 212.74C80.9309 213.184 80.4869 213.532 79.9109 213.784C79.3469 214.036 78.6809 214.162 77.9129 214.162ZM86.1781 211.534L84.0001 216.502H82.6681L83.9461 211.534H86.1781ZM94.6989 200.68V214H92.6469V200.68H94.6989ZM106.375 204.082V214H104.323V212.83C103.999 213.238 103.573 213.562 103.045 213.802C102.529 214.03 101.977 214.144 101.389 214.144C100.609 214.144 99.907 213.982 99.283 213.658C98.671 213.334 98.185 212.854 97.825 212.218C97.477 211.582 97.303 210.814 97.303 209.914V204.082H99.337V209.608C99.337 210.496 99.559 211.18 100.003 211.66C100.447 212.128 101.053 212.362 101.821 212.362C102.589 212.362 103.195 212.128 103.639 211.66C104.095 211.18 104.323 210.496 104.323 209.608V204.082H106.375ZM108.398 209.032C108.398 208.012 108.602 207.118 109.01 206.35C109.43 205.57 110.006 204.97 110.738 204.55C111.47 204.13 112.31 203.92 113.258 203.92C114.458 203.92 115.448 204.208 116.228 204.784C117.02 205.348 117.554 206.158 117.83 207.214H115.616C115.436 206.722 115.148 206.338 114.752 206.062C114.356 205.786 113.858 205.648 113.258 205.648C112.418 205.648 111.746 205.948 111.242 206.548C110.75 207.136 110.504 207.964 110.504 209.032C110.504 210.1 110.75 210.934 111.242 211.534C111.746 212.134 112.418 212.434 113.258 212.434C114.446 212.434 115.232 211.912 115.616 210.868H117.83C117.542 211.876 117.002 212.68 116.21 213.28C115.418 213.868 114.434 214.162 113.258 214.162C112.31 214.162 111.47 213.952 110.738 213.532C110.006 213.1 109.43 212.5 109.01 211.732C108.602 210.952 108.398 210.052 108.398 209.032ZM122.269 205.756V211.246C122.269 211.618 122.353 211.888 122.521 212.056C122.701 212.212 123.001 212.29 123.421 212.29H124.681V214H123.061C122.137 214 121.429 213.784 120.937 213.352C120.445 212.92 120.199 212.218 120.199 211.246V205.756H119.029V204.082H120.199V201.616H122.269V204.082H124.681V205.756H122.269ZM135.555 204.082V214H133.503V212.83C133.179 213.238 132.753 213.562 132.225 213.802C131.709 214.03 131.157 214.144 130.569 214.144C129.789 214.144 129.087 213.982 128.463 213.658C127.851 213.334 127.365 212.854 127.005 212.218C126.657 211.582 126.483 210.814 126.483 209.914V204.082H128.517V209.608C128.517 210.496 128.739 211.18 129.183 211.66C129.627 212.128 130.233 212.362 131.001 212.362C131.769 212.362 132.375 212.128 132.819 211.66C133.275 211.18 133.503 210.496 133.503 209.608V204.082H135.555ZM141.862 214.162C141.082 214.162 140.38 214.024 139.756 213.748C139.144 213.46 138.658 213.076 138.298 212.596C137.938 212.104 137.746 211.558 137.722 210.958H139.846C139.882 211.378 140.08 211.732 140.44 212.02C140.812 212.296 141.274 212.434 141.826 212.434C142.402 212.434 142.846 212.326 143.158 212.11C143.482 211.882 143.644 211.594 143.644 211.246C143.644 210.874 143.464 210.598 143.104 210.418C142.756 210.238 142.198 210.04 141.43 209.824C140.686 209.62 140.08 209.422 139.612 209.23C139.144 209.038 138.736 208.744 138.388 208.348C138.052 207.952 137.884 207.43 137.884 206.782C137.884 206.254 138.04 205.774 138.352 205.342C138.664 204.898 139.108 204.55 139.684 204.298C140.272 204.046 140.944 203.92 141.7 203.92C142.828 203.92 143.734 204.208 144.418 204.784C145.114 205.348 145.486 206.122 145.534 207.106H143.482C143.446 206.662 143.266 206.308 142.942 206.044C142.618 205.78 142.18 205.648 141.628 205.648C141.088 205.648 140.674 205.75 140.386 205.954C140.098 206.158 139.954 206.428 139.954 206.764C139.954 207.028 140.05 207.25 140.242 207.43C140.434 207.61 140.668 207.754 140.944 207.862C141.22 207.958 141.628 208.084 142.168 208.24C142.888 208.432 143.476 208.63 143.932 208.834C144.4 209.026 144.802 209.314 145.138 209.698C145.474 210.082 145.648 210.592 145.66 211.228C145.66 211.792 145.504 212.296 145.192 212.74C144.88 213.184 144.436 213.532 143.86 213.784C143.296 214.036 142.63 214.162 141.862 214.162ZM157.557 203.92C158.337 203.92 159.033 204.082 159.645 204.406C160.269 204.73 160.755 205.21 161.103 205.846C161.451 206.482 161.625 207.25 161.625 208.15V214H159.591V208.456C159.591 207.568 159.369 206.89 158.925 206.422C158.481 205.942 157.875 205.702 157.107 205.702C156.339 205.702 155.727 205.942 155.271 206.422C154.827 206.89 154.605 207.568 154.605 208.456V214H152.553V204.082H154.605V205.216C154.941 204.808 155.367 204.49 155.883 204.262C156.411 204.034 156.969 203.92 157.557 203.92ZM173.333 208.798C173.333 209.17 173.309 209.506 173.261 209.806H165.683C165.743 210.598 166.037 211.234 166.565 211.714C167.093 212.194 167.741 212.434 168.509 212.434C169.613 212.434 170.393 211.972 170.849 211.048H173.063C172.763 211.96 172.217 212.71 171.425 213.298C170.645 213.874 169.673 214.162 168.509 214.162C167.561 214.162 166.709 213.952 165.953 213.532C165.209 213.1 164.621 212.5 164.189 211.732C163.769 210.952 163.559 210.052 163.559 209.032C163.559 208.012 163.763 207.118 164.171 206.35C164.591 205.57 165.173 204.97 165.917 204.55C166.673 204.13 167.537 203.92 168.509 203.92C169.445 203.92 170.279 204.124 171.011 204.532C171.743 204.94 172.313 205.516 172.721 206.26C173.129 206.992 173.333 207.838 173.333 208.798ZM171.191 208.15C171.179 207.394 170.909 206.788 170.381 206.332C169.853 205.876 169.199 205.648 168.419 205.648C167.711 205.648 167.105 205.876 166.601 206.332C166.097 206.776 165.797 207.382 165.701 208.15H171.191ZM174.668 209.032C174.668 208.012 174.872 207.118 175.28 206.35C175.7 205.57 176.276 204.97 177.008 204.55C177.74 204.13 178.58 203.92 179.528 203.92C180.728 203.92 181.718 204.208 182.498 204.784C183.29 205.348 183.824 206.158 184.1 207.214H181.886C181.706 206.722 181.418 206.338 181.022 206.062C180.626 205.786 180.128 205.648 179.528 205.648C178.688 205.648 178.016 205.948 177.512 206.548C177.02 207.136 176.774 207.964 176.774 209.032C176.774 210.1 177.02 210.934 177.512 211.534C178.016 212.134 178.688 212.434 179.528 212.434C180.716 212.434 181.502 211.912 181.886 210.868H184.1C183.812 211.876 183.272 212.68 182.48 213.28C181.688 213.868 180.704 214.162 179.528 214.162C178.58 214.162 177.74 213.952 177.008 213.532C176.276 213.1 175.7 212.5 175.28 211.732C174.872 210.952 174.668 210.052 174.668 209.032ZM199.803 204.082V214H197.751V212.83C197.427 213.238 197.001 213.562 196.473 213.802C195.957 214.03 195.405 214.144 194.817 214.144C194.037 214.144 193.335 213.982 192.711 213.658C192.099 213.334 191.613 212.854 191.253 212.218C190.905 211.582 190.731 210.814 190.731 209.914V204.082H192.765V209.608C192.765 210.496 192.987 211.18 193.431 211.66C193.875 212.128 194.481 212.362 195.249 212.362C196.017 212.362 196.623 212.128 197.067 211.66C197.523 211.18 197.751 210.496 197.751 209.608V204.082H199.803ZM204.562 200.68V214H202.51V200.68H204.562ZM209.308 200.68V214H207.256V200.68H209.308ZM211.318 208.996C211.318 208 211.522 207.118 211.93 206.35C212.35 205.582 212.914 204.988 213.622 204.568C214.342 204.136 215.134 203.92 215.998 203.92C216.778 203.92 217.456 204.076 218.032 204.388C218.62 204.688 219.088 205.066 219.436 205.522V204.082H221.506V214H219.436V212.524C219.088 212.992 218.614 213.382 218.014 213.694C217.414 214.006 216.73 214.162 215.962 214.162C215.11 214.162 214.33 213.946 213.622 213.514C212.914 213.07 212.35 212.458 211.93 211.678C211.522 210.886 211.318 209.992 211.318 208.996ZM219.436 209.032C219.436 208.348 219.292 207.754 219.004 207.25C218.728 206.746 218.362 206.362 217.906 206.098C217.45 205.834 216.958 205.702 216.43 205.702C215.902 205.702 215.41 205.834 214.954 206.098C214.498 206.35 214.126 206.728 213.838 207.232C213.562 207.724 213.424 208.312 213.424 208.996C213.424 209.68 213.562 210.28 213.838 210.796C214.126 211.312 214.498 211.708 214.954 211.984C215.422 212.248 215.914 212.38 216.43 212.38C216.958 212.38 217.45 212.248 217.906 211.984C218.362 211.72 218.728 211.336 219.004 210.832C219.292 210.316 219.436 209.716 219.436 209.032ZM236.208 203.92C236.988 203.92 237.684 204.082 238.296 204.406C238.92 204.73 239.406 205.21 239.754 205.846C240.114 206.482 240.294 207.25 240.294 208.15V214H238.26V208.456C238.26 207.568 238.038 206.89 237.594 206.422C237.15 205.942 236.544 205.702 235.776 205.702C235.008 205.702 234.396 205.942 233.94 206.422C233.496 206.89 233.274 207.568 233.274 208.456V214H231.24V208.456C231.24 207.568 231.018 206.89 230.574 206.422C230.13 205.942 229.524 205.702 228.756 205.702C227.988 205.702 227.376 205.942 226.92 206.422C226.476 206.89 226.254 207.568 226.254 208.456V214H224.202V204.082H226.254V205.216C226.59 204.808 227.016 204.49 227.532 204.262C228.048 204.034 228.6 203.92 229.188 203.92C229.98 203.92 230.688 204.088 231.312 204.424C231.936 204.76 232.416 205.246 232.752 205.882C233.052 205.282 233.52 204.808 234.156 204.46C234.792 204.1 235.476 203.92 236.208 203.92ZM242.221 209.032C242.221 208.012 242.425 207.118 242.833 206.35C243.253 205.57 243.829 204.97 244.561 204.55C245.293 204.13 246.133 203.92 247.081 203.92C248.281 203.92 249.271 204.208 250.051 204.784C250.843 205.348 251.377 206.158 251.653 207.214H249.439C249.259 206.722 248.971 206.338 248.575 206.062C248.179 205.786 247.681 205.648 247.081 205.648C246.241 205.648 245.569 205.948 245.065 206.548C244.573 207.136 244.327 207.964 244.327 209.032C244.327 210.1 244.573 210.934 245.065 211.534C245.569 212.134 246.241 212.434 247.081 212.434C248.269 212.434 249.055 211.912 249.439 210.868H251.653C251.365 211.876 250.825 212.68 250.033 213.28C249.241 213.868 248.257 214.162 247.081 214.162C246.133 214.162 245.293 213.952 244.561 213.532C243.829 213.1 243.253 212.5 242.833 211.732C242.425 210.952 242.221 210.052 242.221 209.032ZM258 214.162C257.064 214.162 256.218 213.952 255.462 213.532C254.706 213.1 254.112 212.5 253.68 211.732C253.248 210.952 253.032 210.052 253.032 209.032C253.032 208.024 253.254 207.13 253.698 206.35C254.142 205.57 254.748 204.97 255.516 204.55C256.284 204.13 257.142 203.92 258.09 203.92C259.038 203.92 259.896 204.13 260.664 204.55C261.432 204.97 262.038 205.57 262.482 206.35C262.926 207.13 263.148 208.024 263.148 209.032C263.148 210.04 262.92 210.934 262.464 211.714C262.008 212.494 261.384 213.1 260.592 213.532C259.812 213.952 258.948 214.162 258 214.162ZM258 212.38C258.528 212.38 259.02 212.254 259.476 212.002C259.944 211.75 260.322 211.372 260.61 210.868C260.898 210.364 261.042 209.752 261.042 209.032C261.042 208.312 260.904 207.706 260.628 207.214C260.352 206.71 259.986 206.332 259.53 206.08C259.074 205.828 258.582 205.702 258.054 205.702C257.526 205.702 257.034 205.828 256.578 206.08C256.134 206.332 255.78 206.71 255.516 207.214C255.252 207.706 255.12 208.312 255.12 209.032C255.12 210.1 255.39 210.928 255.93 211.516C256.482 212.092 257.172 212.38 258 212.38ZM267.228 205.522C267.528 205.018 267.924 204.628 268.416 204.352C268.92 204.064 269.514 203.92 270.198 203.92V206.044H269.676C268.872 206.044 268.26 206.248 267.84 206.656C267.432 207.064 267.228 207.772 267.228 208.78V214H265.176V204.082H267.228V205.522ZM274.136 205.54C274.484 205.084 274.958 204.7 275.558 204.388C276.158 204.076 276.836 203.92 277.592 203.92C278.456 203.92 279.242 204.136 279.95 204.568C280.67 204.988 281.234 205.582 281.642 206.35C282.05 207.118 282.254 208 282.254 208.996C282.254 209.992 282.05 210.886 281.642 211.678C281.234 212.458 280.67 213.07 279.95 213.514C279.242 213.946 278.456 214.162 277.592 214.162C276.836 214.162 276.164 214.012 275.576 213.712C274.988 213.4 274.508 213.016 274.136 212.56V218.716H272.084V204.082H274.136V205.54ZM280.166 208.996C280.166 208.312 280.022 207.724 279.734 207.232C279.458 206.728 279.086 206.35 278.618 206.098C278.162 205.834 277.67 205.702 277.142 205.702C276.626 205.702 276.134 205.834 275.666 206.098C275.21 206.362 274.838 206.746 274.55 207.25C274.274 207.754 274.136 208.348 274.136 209.032C274.136 209.716 274.274 210.316 274.55 210.832C274.838 211.336 275.21 211.72 275.666 211.984C276.134 212.248 276.626 212.38 277.142 212.38C277.67 212.38 278.162 212.248 278.618 211.984C279.086 211.708 279.458 211.312 279.734 210.796C280.022 210.28 280.166 209.68 280.166 208.996ZM293.374 208.798C293.374 209.17 293.35 209.506 293.302 209.806H285.724C285.784 210.598 286.078 211.234 286.606 211.714C287.134 212.194 287.782 212.434 288.55 212.434C289.654 212.434 290.434 211.972 290.89 211.048H293.104C292.804 211.96 292.258 212.71 291.466 213.298C290.686 213.874 289.714 214.162 288.55 214.162C287.602 214.162 286.75 213.952 285.994 213.532C285.25 213.1 284.662 212.5 284.23 211.732C283.81 210.952 283.6 210.052 283.6 209.032C283.6 208.012 283.804 207.118 284.212 206.35C284.632 205.57 285.214 204.97 285.958 204.55C286.714 204.13 287.578 203.92 288.55 203.92C289.486 203.92 290.32 204.124 291.052 204.532C291.784 204.94 292.354 205.516 292.762 206.26C293.17 206.992 293.374 207.838 293.374 208.798ZM291.232 208.15C291.22 207.394 290.95 206.788 290.422 206.332C289.894 205.876 289.24 205.648 288.46 205.648C287.752 205.648 287.146 205.876 286.642 206.332C286.138 206.776 285.838 207.382 285.742 208.15H291.232ZM297.445 205.522C297.745 205.018 298.141 204.628 298.633 204.352C299.137 204.064 299.731 203.92 300.415 203.92V206.044H299.893C299.089 206.044 298.477 206.248 298.057 206.656C297.649 207.064 297.445 207.772 297.445 208.78V214H295.393V204.082H297.445V205.522ZM318.983 203.92C319.763 203.92 320.459 204.082 321.071 204.406C321.695 204.73 322.181 205.21 322.529 205.846C322.889 206.482 323.069 207.25 323.069 208.15V214H321.035V208.456C321.035 207.568 320.813 206.89 320.369 206.422C319.925 205.942 319.319 205.702 318.551 205.702C317.783 205.702 317.171 205.942 316.715 206.422C316.271 206.89 316.049 207.568 316.049 208.456V214H314.015V208.456C314.015 207.568 313.793 206.89 313.349 206.422C312.905 205.942 312.299 205.702 311.531 205.702C310.763 205.702 310.151 205.942 309.695 206.422C309.251 206.89 309.029 207.568 309.029 208.456V214H306.977V204.082H309.029V205.216C309.365 204.808 309.791 204.49 310.307 204.262C310.823 204.034 311.375 203.92 311.963 203.92C312.755 203.92 313.463 204.088 314.087 204.424C314.711 204.76 315.191 205.246 315.527 205.882C315.827 205.282 316.295 204.808 316.931 204.46C317.567 204.1 318.251 203.92 318.983 203.92ZM324.996 208.996C324.996 208 325.2 207.118 325.608 206.35C326.028 205.582 326.592 204.988 327.3 204.568C328.02 204.136 328.812 203.92 329.676 203.92C330.456 203.92 331.134 204.076 331.71 204.388C332.298 204.688 332.766 205.066 333.114 205.522V204.082H335.184V214H333.114V212.524C332.766 212.992 332.292 213.382 331.692 213.694C331.092 214.006 330.408 214.162 329.64 214.162C328.788 214.162 328.008 213.946 327.3 213.514C326.592 213.07 326.028 212.458 325.608 211.678C325.2 210.886 324.996 209.992 324.996 208.996ZM333.114 209.032C333.114 208.348 332.97 207.754 332.682 207.25C332.406 206.746 332.04 206.362 331.584 206.098C331.128 205.834 330.636 205.702 330.108 205.702C329.58 205.702 329.088 205.834 328.632 206.098C328.176 206.35 327.804 206.728 327.516 207.232C327.24 207.724 327.102 208.312 327.102 208.996C327.102 209.68 327.24 210.28 327.516 210.796C327.804 211.312 328.176 211.708 328.632 211.984C329.1 212.248 329.592 212.38 330.108 212.38C330.636 212.38 331.128 212.248 331.584 211.984C332.04 211.72 332.406 211.336 332.682 210.832C332.97 210.316 333.114 209.716 333.114 209.032ZM340.273 205.756V211.246C340.273 211.618 340.357 211.888 340.525 212.056C340.705 212.212 341.005 212.29 341.425 212.29H342.685V214H341.065C340.141 214 339.433 213.784 338.941 213.352C338.449 212.92 338.203 212.218 338.203 211.246V205.756H337.033V204.082H338.203V201.616H340.273V204.082H342.685V205.756H340.273ZM346.971 205.756V211.246C346.971 211.618 347.055 211.888 347.223 212.056C347.403 212.212 347.703 212.29 348.123 212.29H349.383V214H347.763C346.839 214 346.131 213.784 345.639 213.352C345.147 212.92 344.901 212.218 344.901 211.246V205.756H343.731V204.082H344.901V201.616H346.971V204.082H349.383V205.756H346.971ZM352.318 202.768C351.946 202.768 351.634 202.642 351.382 202.39C351.13 202.138 351.004 201.826 351.004 201.454C351.004 201.082 351.13 200.77 351.382 200.518C351.634 200.266 351.946 200.14 352.318 200.14C352.678 200.14 352.984 200.266 353.236 200.518C353.488 200.77 353.614 201.082 353.614 201.454C353.614 201.826 353.488 202.138 353.236 202.39C352.984 202.642 352.678 202.768 352.318 202.768ZM353.326 204.082V214H351.274V204.082H353.326ZM359.62 214.162C358.84 214.162 358.138 214.024 357.514 213.748C356.902 213.46 356.416 213.076 356.056 212.596C355.696 212.104 355.504 211.558 355.48 210.958H357.604C357.64 211.378 357.838 211.732 358.198 212.02C358.57 212.296 359.032 212.434 359.584 212.434C360.16 212.434 360.604 212.326 360.916 212.11C361.24 211.882 361.402 211.594 361.402 211.246C361.402 210.874 361.222 210.598 360.862 210.418C360.514 210.238 359.956 210.04 359.188 209.824C358.444 209.62 357.838 209.422 357.37 209.23C356.902 209.038 356.494 208.744 356.146 208.348C355.81 207.952 355.642 207.43 355.642 206.782C355.642 206.254 355.798 205.774 356.11 205.342C356.422 204.898 356.866 204.55 357.442 204.298C358.03 204.046 358.702 203.92 359.458 203.92C360.586 203.92 361.492 204.208 362.176 204.784C362.872 205.348 363.244 206.122 363.292 207.106H361.24C361.204 206.662 361.024 206.308 360.7 206.044C360.376 205.78 359.938 205.648 359.386 205.648C358.846 205.648 358.432 205.75 358.144 205.954C357.856 206.158 357.712 206.428 357.712 206.764C357.712 207.028 357.808 207.25 358 207.43C358.192 207.61 358.426 207.754 358.702 207.862C358.978 207.958 359.386 208.084 359.926 208.24C360.646 208.432 361.234 208.63 361.69 208.834C362.158 209.026 362.56 209.314 362.896 209.698C363.232 210.082 363.406 210.592 363.418 211.228C363.418 211.792 363.262 212.296 362.95 212.74C362.638 213.184 362.194 213.532 361.618 213.784C361.054 214.036 360.388 214.162 359.62 214.162ZM366.463 214.126C366.091 214.126 365.779 214 365.527 213.748C365.275 213.496 365.149 213.184 365.149 212.812C365.149 212.44 365.275 212.128 365.527 211.876C365.779 211.624 366.091 211.498 366.463 211.498C366.823 211.498 367.129 211.624 367.381 211.876C367.633 212.128 367.759 212.44 367.759 212.812C367.759 213.184 367.633 213.496 367.381 213.748C367.129 214 366.823 214.126 366.463 214.126Z" fill="#333333"/>
<rect width="222" height="74" transform="translate(0 270)" fill="#B88E2F"/>
<path d="M79.792 307.24C80.4427 307.379 80.9653 307.704 81.36 308.216C81.7547 308.717 81.952 309.293 81.952 309.944C81.952 310.883 81.6213 311.629 80.96 312.184C80.3093 312.728 79.3973 313 78.224 313H72.992V301.768H78.048C79.1893 301.768 80.08 302.029 80.72 302.552C81.3707 303.075 81.696 303.784 81.696 304.68C81.696 305.341 81.52 305.891 81.168 306.328C80.8267 306.765 80.368 307.069 79.792 307.24ZM75.728 306.312H77.52C77.968 306.312 78.3093 306.216 78.544 306.024C78.7893 305.821 78.912 305.528 78.912 305.144C78.912 304.76 78.7893 304.467 78.544 304.264C78.3093 304.061 77.968 303.96 77.52 303.96H75.728V306.312ZM77.744 310.792C78.2027 310.792 78.5547 310.691 78.8 310.488C79.056 310.275 79.184 309.971 79.184 309.576C79.184 309.181 79.0507 308.872 78.784 308.648C78.528 308.424 78.1707 308.312 77.712 308.312H75.728V310.792H77.744ZM86.2269 301.768V308.488C86.2269 309.16 86.3922 309.677 86.7229 310.04C87.0535 310.403 87.5389 310.584 88.1789 310.584C88.8189 310.584 89.3095 310.403 89.6509 310.04C89.9922 309.677 90.1629 309.16 90.1629 308.488V301.768H92.8989V308.472C92.8989 309.475 92.6855 310.323 92.2589 311.016C91.8322 311.709 91.2562 312.232 90.5309 312.584C89.8162 312.936 89.0162 313.112 88.1309 313.112C87.2455 313.112 86.4509 312.941 85.7469 312.6C85.0535 312.248 84.5042 311.725 84.0989 311.032C83.6935 310.328 83.4909 309.475 83.4909 308.472V301.768H86.2269ZM104.452 301.768L100.564 309.288V313H97.8281V309.288L93.9401 301.768H97.0441L99.2201 306.472L101.38 301.768H104.452ZM118.993 313H116.257L111.681 306.072V313H108.945V301.768H111.681L116.257 308.728V301.768H118.993V313ZM126.288 313.112C125.232 313.112 124.262 312.867 123.376 312.376C122.502 311.885 121.803 311.203 121.28 310.328C120.768 309.443 120.512 308.451 120.512 307.352C120.512 306.253 120.768 305.267 121.28 304.392C121.803 303.517 122.502 302.835 123.376 302.344C124.262 301.853 125.232 301.608 126.288 301.608C127.344 301.608 128.31 301.853 129.184 302.344C130.07 302.835 130.763 303.517 131.264 304.392C131.776 305.267 132.032 306.253 132.032 307.352C132.032 308.451 131.776 309.443 131.264 310.328C130.752 311.203 130.059 311.885 129.184 312.376C128.31 312.867 127.344 313.112 126.288 313.112ZM126.288 310.616C127.184 310.616 127.899 310.317 128.432 309.72C128.976 309.123 129.248 308.333 129.248 307.352C129.248 306.36 128.976 305.571 128.432 304.984C127.899 304.387 127.184 304.088 126.288 304.088C125.382 304.088 124.656 304.381 124.112 304.968C123.579 305.555 123.312 306.349 123.312 307.352C123.312 308.344 123.579 309.139 124.112 309.736C124.656 310.323 125.382 310.616 126.288 310.616ZM149.01 301.768L146.083 313H142.771L140.979 305.608L139.123 313H135.811L132.963 301.768H135.891L137.507 309.944L139.507 301.768H142.515L144.435 309.944L146.067 301.768H149.01Z" fill="white"/>
<path d="M12.656 18H10.416L5.344 10.336V18H3.104V6.81597H5.344L10.416 14.496V6.81597H12.656V18ZM26.1096 13.376C26.1096 13.696 26.0883 13.984 26.0456 14.24H19.5656C19.619 14.88 19.843 15.3813 20.2376 15.744C20.6323 16.1066 21.1176 16.288 21.6936 16.288C22.5256 16.288 23.1176 15.9306 23.4696 15.216H25.8856C25.6296 16.0693 25.139 16.7733 24.4136 17.328C23.6883 17.872 22.7976 18.144 21.7416 18.144C20.8883 18.144 20.1203 17.9573 19.4376 17.584C18.7656 17.2 18.2376 16.6613 17.8536 15.968C17.4803 15.2746 17.2936 14.4746 17.2936 13.568C17.2936 12.6506 17.4803 11.8453 17.8536 11.152C18.227 10.4586 18.7496 9.9253 19.4216 9.55197C20.0936 9.17864 20.867 8.99197 21.7416 8.99197C22.5843 8.99197 23.3363 9.1733 23.9976 9.53597C24.6696 9.89864 25.187 10.416 25.5496 11.088C25.923 11.7493 26.1096 12.512 26.1096 13.376ZM23.7896 12.736C23.779 12.16 23.571 11.7013 23.1656 11.36C22.7603 11.008 22.2643 10.832 21.6776 10.832C21.123 10.832 20.6536 11.0026 20.2696 11.344C19.8963 11.6746 19.667 12.1386 19.5816 12.736H23.7896ZM43.0326 9.13597L40.4406 18H38.0246L36.4086 11.808L34.7926 18H32.3606L29.7526 9.13597H32.0246L33.5926 15.888L35.2886 9.13597H37.6566L39.3206 15.872L40.8886 9.13597H43.0326ZM60.9051 15.872H56.4571L55.7211 18H53.3691L57.3851 6.81597H59.9931L64.0091 18H61.6411L60.9051 15.872ZM60.2971 14.08L58.6811 9.40797L57.0651 14.08H60.2971ZM70.7503 10.512C71.0383 10.0426 71.4116 9.67464 71.8703 9.40797C72.3396 9.1413 72.8729 9.00797 73.4703 9.00797V11.36H72.8783C72.1743 11.36 71.6409 11.5253 71.2783 11.856C70.9263 12.1866 70.7503 12.7626 70.7503 13.584V18H68.5103V9.13597H70.7503V10.512ZM80.219 10.512C80.507 10.0426 80.8803 9.67464 81.339 9.40797C81.8083 9.1413 82.3417 9.00797 82.939 9.00797V11.36H82.347C81.643 11.36 81.1097 11.5253 80.747 11.856C80.395 12.1866 80.219 12.7626 80.219 13.584V18H77.979V9.13597H80.219V10.512ZM88.5838 8.07997C88.1891 8.07997 87.8584 7.9573 87.5918 7.71197C87.3358 7.45597 87.2078 7.1413 87.2078 6.76797C87.2078 6.39464 87.3358 6.0853 87.5918 5.83997C87.8584 5.58397 88.1891 5.45597 88.5838 5.45597C88.9784 5.45597 89.3038 5.58397 89.5598 5.83997C89.8264 6.0853 89.9598 6.39464 89.9598 6.76797C89.9598 7.1413 89.8264 7.45597 89.5598 7.71197C89.3038 7.9573 88.9784 8.07997 88.5838 8.07997ZM89.6878 9.13597V18H87.4478V9.13597H89.6878ZM98.5969 15.936L100.837 9.13597H103.221L99.9409 18H97.2209L93.9569 9.13597H96.3569L98.5969 15.936ZM106.903 13.536C106.903 12.64 107.079 11.8453 107.431 11.152C107.794 10.4586 108.279 9.9253 108.887 9.55197C109.506 9.17864 110.194 8.99197 110.951 8.99197C111.612 8.99197 112.188 9.1253 112.679 9.39197C113.18 9.65864 113.58 9.99464 113.879 10.4V9.13597H116.135V18H113.879V16.704C113.591 17.12 113.191 17.4666 112.679 17.744C112.178 18.0106 111.596 18.144 110.935 18.144C110.188 18.144 109.506 17.952 108.887 17.568C108.279 17.184 107.794 16.6453 107.431 15.952C107.079 15.248 106.903 14.4426 106.903 13.536ZM113.879 13.568C113.879 13.024 113.772 12.56 113.559 12.176C113.346 11.7813 113.058 11.4826 112.695 11.28C112.332 11.0666 111.943 10.96 111.527 10.96C111.111 10.96 110.727 11.0613 110.375 11.264C110.023 11.4666 109.735 11.7653 109.511 12.16C109.298 12.544 109.191 13.0026 109.191 13.536C109.191 14.0693 109.298 14.5386 109.511 14.944C109.735 15.3386 110.023 15.6426 110.375 15.856C110.738 16.0693 111.122 16.176 111.527 16.176C111.943 16.176 112.332 16.0746 112.695 15.872C113.058 15.6586 113.346 15.36 113.559 14.976C113.772 14.5813 113.879 14.112 113.879 13.568ZM123.563 6.15997V18H121.323V6.15997H123.563Z" fill="#333333"/>
</svg>
