<svg width="245" height="48" viewBox="0 0 245 48" fill="none" xmlns="http://www.w3.org/2000/svg">
<rect x="0.5" y="0.5" width="244" height="47" fill="white" stroke="#B88E2F"/>
<path d="M86.96 30.112C86.1813 30.112 85.4773 29.9787 84.848 29.712C84.2293 29.4453 83.7387 29.0613 83.376 28.56C83.0133 28.0587 82.8267 27.4667 82.816 26.784H85.216C85.248 27.2427 85.408 27.6053 85.696 27.872C85.9947 28.1387 86.4 28.272 86.912 28.272C87.4347 28.272 87.8453 28.1493 88.144 27.904C88.4427 27.648 88.592 27.3173 88.592 26.912C88.592 26.5813 88.4907 26.3093 88.288 26.096C88.0853 25.8827 87.8293 25.7173 87.52 25.6C87.2213 25.472 86.8053 25.3333 86.272 25.184C85.5467 24.9707 84.9547 24.7627 84.496 24.56C84.048 24.3467 83.6587 24.032 83.328 23.616C83.008 23.1893 82.848 22.624 82.848 21.92C82.848 21.2587 83.0133 20.6827 83.344 20.192C83.6747 19.7013 84.1387 19.328 84.736 19.072C85.3333 18.8053 86.016 18.672 86.784 18.672C87.936 18.672 88.8693 18.9547 89.584 19.52C90.3093 20.0747 90.7093 20.8533 90.784 21.856H88.32C88.2987 21.472 88.1333 21.1573 87.824 20.912C87.5253 20.656 87.1253 20.528 86.624 20.528C86.1867 20.528 85.8347 20.64 85.568 20.864C85.312 21.088 85.184 21.4133 85.184 21.84C85.184 22.1387 85.28 22.3893 85.472 22.592C85.6747 22.784 85.92 22.944 86.208 23.072C86.5067 23.1893 86.9227 23.328 87.456 23.488C88.1813 23.7013 88.7733 23.9147 89.232 24.128C89.6907 24.3413 90.0853 24.6613 90.416 25.088C90.7467 25.5147 90.912 26.0747 90.912 26.768C90.912 27.3653 90.7573 27.92 90.448 28.432C90.1387 28.944 89.6853 29.3547 89.088 29.664C88.4907 29.9627 87.7813 30.112 86.96 30.112ZM97.846 21.008C98.518 21.008 99.1153 21.1573 99.638 21.456C100.161 21.744 100.566 22.176 100.854 22.752C101.153 23.3173 101.302 24 101.302 24.8V30H99.062V25.104C99.062 24.4 98.886 23.8613 98.534 23.488C98.182 23.104 97.702 22.912 97.094 22.912C96.4753 22.912 95.9847 23.104 95.622 23.488C95.27 23.8613 95.094 24.4 95.094 25.104V30H92.854V18.16H95.094V22.24C95.382 21.856 95.766 21.5573 96.246 21.344C96.726 21.12 97.2593 21.008 97.846 21.008ZM107.368 30.144C106.515 30.144 105.747 29.9573 105.064 29.584C104.381 29.2 103.843 28.6613 103.448 27.968C103.064 27.2747 102.872 26.4747 102.872 25.568C102.872 24.6613 103.069 23.8613 103.464 23.168C103.869 22.4747 104.419 21.9413 105.112 21.568C105.805 21.184 106.579 20.992 107.432 20.992C108.285 20.992 109.059 21.184 109.752 21.568C110.445 21.9413 110.989 22.4747 111.384 23.168C111.789 23.8613 111.992 24.6613 111.992 25.568C111.992 26.4747 111.784 27.2747 111.368 27.968C110.963 28.6613 110.408 29.2 109.704 29.584C109.011 29.9573 108.232 30.144 107.368 30.144ZM107.368 28.192C107.773 28.192 108.152 28.096 108.504 27.904C108.867 27.7013 109.155 27.4027 109.368 27.008C109.581 26.6133 109.688 26.1333 109.688 25.568C109.688 24.7253 109.464 24.08 109.016 23.632C108.579 23.1733 108.04 22.944 107.4 22.944C106.76 22.944 106.221 23.1733 105.784 23.632C105.357 24.08 105.144 24.7253 105.144 25.568C105.144 26.4107 105.352 27.0613 105.768 27.52C106.195 27.968 106.728 28.192 107.368 28.192ZM125.923 21.136L123.331 30H120.915L119.299 23.808L117.683 30H115.251L112.643 21.136H114.915L116.483 27.888L118.179 21.136H120.547L122.211 27.872L123.779 21.136H125.923ZM143.124 18.832V30H140.884V22.736L137.892 30H136.196L133.188 22.736V30H130.948V18.832H133.492L137.044 27.136L140.596 18.832H143.124ZM149.274 30.144C148.421 30.144 147.653 29.9573 146.97 29.584C146.288 29.2 145.749 28.6613 145.354 27.968C144.97 27.2747 144.778 26.4747 144.778 25.568C144.778 24.6613 144.976 23.8613 145.37 23.168C145.776 22.4747 146.325 21.9413 147.018 21.568C147.712 21.184 148.485 20.992 149.338 20.992C150.192 20.992 150.965 21.184 151.658 21.568C152.352 21.9413 152.896 22.4747 153.29 23.168C153.696 23.8613 153.898 24.6613 153.898 25.568C153.898 26.4747 153.69 27.2747 153.274 27.968C152.869 28.6613 152.314 29.2 151.61 29.584C150.917 29.9573 150.138 30.144 149.274 30.144ZM149.274 28.192C149.68 28.192 150.058 28.096 150.41 27.904C150.773 27.7013 151.061 27.4027 151.274 27.008C151.488 26.6133 151.594 26.1333 151.594 25.568C151.594 24.7253 151.37 24.08 150.922 23.632C150.485 23.1733 149.946 22.944 149.306 22.944C148.666 22.944 148.128 23.1733 147.69 23.632C147.264 24.08 147.05 24.7253 147.05 25.568C147.05 26.4107 147.258 27.0613 147.674 27.52C148.101 27.968 148.634 28.192 149.274 28.192ZM157.782 22.512C158.07 22.0427 158.443 21.6747 158.902 21.408C159.371 21.1413 159.904 21.008 160.502 21.008V23.36H159.91C159.206 23.36 158.672 23.5253 158.31 23.856C157.958 24.1867 157.782 24.7627 157.782 25.584V30H155.542V21.136H157.782V22.512ZM170.25 25.376C170.25 25.696 170.229 25.984 170.186 26.24H163.706C163.76 26.88 163.984 27.3813 164.378 27.744C164.773 28.1067 165.258 28.288 165.834 28.288C166.666 28.288 167.258 27.9307 167.61 27.216H170.026C169.77 28.0693 169.28 28.7733 168.554 29.328C167.829 29.872 166.938 30.144 165.882 30.144C165.029 30.144 164.261 29.9573 163.578 29.584C162.906 29.2 162.378 28.6613 161.994 27.968C161.621 27.2747 161.434 26.4747 161.434 25.568C161.434 24.6507 161.621 23.8453 161.994 23.152C162.368 22.4587 162.89 21.9253 163.562 21.552C164.234 21.1787 165.008 20.992 165.882 20.992C166.725 20.992 167.477 21.1733 168.138 21.536C168.81 21.8987 169.328 22.416 169.69 23.088C170.064 23.7493 170.25 24.512 170.25 25.376ZM167.93 24.736C167.92 24.16 167.712 23.7013 167.306 23.36C166.901 23.008 166.405 22.832 165.818 22.832C165.264 22.832 164.794 23.0027 164.41 23.344C164.037 23.6747 163.808 24.1387 163.722 24.736H167.93Z" fill="#B88E2F"/>
</svg>
