<svg width="422" height="151" viewBox="0 0 422 151" fill="none" xmlns="http://www.w3.org/2000/svg">
<path d="M22.36 14.76H9.88V20.28C10.4133 19.6933 11.16 19.2133 12.12 18.84C13.08 18.4667 14.12 18.28 15.24 18.28C17.24 18.28 18.8933 18.7333 20.2 19.64C21.5333 20.5467 22.5067 21.72 23.12 23.16C23.7333 24.6 24.04 26.16 24.04 27.84C24.04 30.96 23.16 33.44 21.4 35.28C19.64 37.0933 17.16 38 13.96 38C11.8267 38 9.97333 37.64 8.4 36.92C6.82667 36.1733 5.61333 35.1467 4.76 33.84C3.90667 32.5333 3.44 31.0267 3.36 29.32H10.04C10.2 30.1467 10.5867 30.84 11.2 31.4C11.8133 31.9333 12.6533 32.2 13.72 32.2C14.9733 32.2 15.9067 31.8 16.52 31C17.1333 30.2 17.44 29.1333 17.44 27.8C17.44 26.4933 17.12 25.4933 16.48 24.8C15.84 24.1067 14.9067 23.76 13.68 23.76C12.7733 23.76 12.0267 23.9867 11.44 24.44C10.8533 24.8667 10.4667 25.44 10.28 26.16H3.68V8.76H22.36V14.76ZM27.8156 23C27.8156 18.4133 28.6956 14.8 30.4556 12.16C32.2423 9.52 35.109 8.2 39.0556 8.2C43.0023 8.2 45.8556 9.52 47.6156 12.16C49.4023 14.8 50.2956 18.4133 50.2956 23C50.2956 27.64 49.4023 31.28 47.6156 33.92C45.8556 36.56 43.0023 37.88 39.0556 37.88C35.109 37.88 32.2423 36.56 30.4556 33.92C28.6956 31.28 27.8156 27.64 27.8156 23ZM43.5756 23C43.5756 20.3067 43.2823 18.24 42.6956 16.8C42.109 15.3333 40.8956 14.6 39.0556 14.6C37.2156 14.6 36.0023 15.3333 35.4156 16.8C34.829 18.24 34.5356 20.3067 34.5356 23C34.5356 24.8133 34.6423 26.32 34.8556 27.52C35.069 28.6933 35.4956 29.6533 36.1356 30.4C36.8023 31.12 37.7756 31.48 39.0556 31.48C40.3356 31.48 41.2956 31.12 41.9356 30.4C42.6023 29.6533 43.0423 28.6933 43.2556 27.52C43.469 26.32 43.5756 24.8133 43.5756 23ZM74.8694 27.08H67.9094V34.2H61.4294V27.08H54.4694V20.96H61.4294V13.8H67.9094V20.96H74.8694V27.08ZM105.183 23.6C106.81 23.9467 108.116 24.76 109.103 26.04C110.09 27.2933 110.583 28.7333 110.583 30.36C110.583 32.7067 109.756 34.5733 108.103 35.96C106.476 37.32 104.196 38 101.263 38H88.1831V9.92H100.823C103.676 9.92 105.903 10.5733 107.503 11.88C109.13 13.1867 109.943 14.96 109.943 17.2C109.943 18.8533 109.503 20.2267 108.623 21.32C107.77 22.4133 106.623 23.1733 105.183 23.6ZM95.0231 21.28H99.5031C100.623 21.28 101.476 21.04 102.063 20.56C102.676 20.0533 102.983 19.32 102.983 18.36C102.983 17.4 102.676 16.6667 102.063 16.16C101.476 15.6533 100.623 15.4 99.5031 15.4H95.0231V21.28ZM100.063 32.48C101.21 32.48 102.09 32.2267 102.703 31.72C103.343 31.1867 103.663 30.4267 103.663 29.44C103.663 28.4533 103.33 27.68 102.663 27.12C102.023 26.56 101.13 26.28 99.9831 26.28H95.0231V32.48H100.063ZM135.59 26.48C135.59 27.12 135.55 27.7867 135.47 28.48H119.99C120.097 29.8667 120.537 30.9333 121.31 31.68C122.11 32.4 123.084 32.76 124.23 32.76C125.937 32.76 127.124 32.04 127.79 30.6H135.07C134.697 32.0667 134.017 33.3867 133.03 34.56C132.07 35.7333 130.857 36.6533 129.39 37.32C127.924 37.9867 126.284 38.32 124.47 38.32C122.284 38.32 120.337 37.8533 118.63 36.92C116.924 35.9867 115.59 34.6533 114.63 32.92C113.67 31.1867 113.19 29.16 113.19 26.84C113.19 24.52 113.657 22.4933 114.59 20.76C115.55 19.0267 116.884 17.6933 118.59 16.76C120.297 15.8267 122.257 15.36 124.47 15.36C126.63 15.36 128.55 15.8133 130.23 16.72C131.91 17.6267 133.217 18.92 134.15 20.6C135.11 22.28 135.59 24.24 135.59 26.48ZM128.59 24.68C128.59 23.5067 128.19 22.5733 127.39 21.88C126.59 21.1867 125.59 20.84 124.39 20.84C123.244 20.84 122.27 21.1733 121.47 21.84C120.697 22.5067 120.217 23.4533 120.03 24.68H128.59ZM137.839 26.8C137.839 24.5067 138.265 22.4933 139.119 20.76C139.999 19.0267 141.185 17.6933 142.679 16.76C144.172 15.8267 145.839 15.36 147.679 15.36C149.252 15.36 150.625 15.68 151.799 16.32C152.999 16.96 153.919 17.8 154.559 18.84V15.68H161.399V38H154.559V34.84C153.892 35.88 152.959 36.72 151.759 37.36C150.585 38 149.212 38.32 147.639 38.32C145.825 38.32 144.172 37.8533 142.679 36.92C141.185 35.96 139.999 34.6133 139.119 32.88C138.265 31.12 137.839 29.0933 137.839 26.8ZM154.559 26.84C154.559 25.1333 154.079 23.7867 153.119 22.8C152.185 21.8133 151.039 21.32 149.679 21.32C148.319 21.32 147.159 21.8133 146.199 22.8C145.265 23.76 144.799 25.0933 144.799 26.8C144.799 28.5067 145.265 29.8667 146.199 30.88C147.159 31.8667 148.319 32.36 149.679 32.36C151.039 32.36 152.185 31.8667 153.119 30.88C154.079 29.8933 154.559 28.5467 154.559 26.84ZM188.387 15.68V38H181.547V34.96C180.854 35.9467 179.907 36.7467 178.707 37.36C177.534 37.9467 176.227 38.24 174.787 38.24C173.081 38.24 171.574 37.8667 170.267 37.12C168.961 36.3467 167.947 35.24 167.227 33.8C166.507 32.36 166.147 30.6667 166.147 28.72V15.68H172.947V27.8C172.947 29.2933 173.334 30.4533 174.107 31.28C174.881 32.1067 175.921 32.52 177.227 32.52C178.561 32.52 179.614 32.1067 180.387 31.28C181.161 30.4533 181.547 29.2933 181.547 27.8V15.68H188.387ZM205.74 32.2V38H202.26C199.78 38 197.847 37.4 196.46 36.2C195.074 34.9733 194.38 32.9867 194.38 30.24V21.36H191.66V15.68H194.38V10.24H201.22V15.68H205.7V21.36H201.22V30.32C201.22 30.9867 201.38 31.4667 201.7 31.76C202.02 32.0533 202.554 32.2 203.3 32.2H205.74ZM212.99 13.36C211.79 13.36 210.804 13.0133 210.03 12.32C209.284 11.6 208.91 10.72 208.91 9.68C208.91 8.61333 209.284 7.73333 210.03 7.04C210.804 6.32 211.79 5.96 212.99 5.96C214.164 5.96 215.124 6.32 215.87 7.04C216.644 7.73333 217.03 8.61333 217.03 9.68C217.03 10.72 216.644 11.6 215.87 12.32C215.124 13.0133 214.164 13.36 212.99 13.36ZM216.39 15.68V38H209.55V15.68H216.39ZM232.547 21.36H228.867V38H222.027V21.36H219.547V15.68H222.027V15.04C222.027 12.2933 222.814 10.2133 224.387 8.8C225.961 7.36 228.267 6.64 231.307 6.64C231.814 6.64 232.187 6.65333 232.427 6.68V12.48C231.121 12.4 230.201 12.5867 229.667 13.04C229.134 13.4933 228.867 14.3067 228.867 15.48V15.68H232.547V21.36ZM257.801 15.68V38H250.961V34.96C250.268 35.9467 249.321 36.7467 248.121 37.36C246.948 37.9467 245.641 38.24 244.201 38.24C242.495 38.24 240.988 37.8667 239.681 37.12C238.375 36.3467 237.361 35.24 236.641 33.8C235.921 32.36 235.561 30.6667 235.561 28.72V15.68H242.361V27.8C242.361 29.2933 242.748 30.4533 243.521 31.28C244.295 32.1067 245.335 32.52 246.641 32.52C247.975 32.52 249.028 32.1067 249.801 31.28C250.575 30.4533 250.961 29.2933 250.961 27.8V15.68H257.801ZM269.554 8.4V38H262.714V8.4H269.554ZM289.828 19.4C290.628 18.1733 291.628 17.2133 292.828 16.52C294.028 15.8 295.361 15.44 296.828 15.44V22.68H294.948C293.241 22.68 291.961 23.0533 291.108 23.8C290.254 24.52 289.828 25.8 289.828 27.64V38H282.988V15.68H289.828V19.4ZM310.257 38.32C308.071 38.32 306.097 37.8533 304.337 36.92C302.604 35.9867 301.231 34.6533 300.217 32.92C299.231 31.1867 298.737 29.16 298.737 26.84C298.737 24.5467 299.244 22.5333 300.257 20.8C301.271 19.04 302.657 17.6933 304.417 16.76C306.177 15.8267 308.151 15.36 310.337 15.36C312.524 15.36 314.497 15.8267 316.257 16.76C318.017 17.6933 319.404 19.04 320.417 20.8C321.431 22.5333 321.937 24.5467 321.937 26.84C321.937 29.1333 321.417 31.16 320.377 32.92C319.364 34.6533 317.964 35.9867 316.177 36.92C314.417 37.8533 312.444 38.32 310.257 38.32ZM310.257 32.4C311.564 32.4 312.671 31.92 313.577 30.96C314.511 30 314.977 28.6267 314.977 26.84C314.977 25.0533 314.524 23.68 313.617 22.72C312.737 21.76 311.644 21.28 310.337 21.28C309.004 21.28 307.897 21.76 307.017 22.72C306.137 23.6533 305.697 25.0267 305.697 26.84C305.697 28.6267 306.124 30 306.977 30.96C307.857 31.92 308.951 32.4 310.257 32.4ZM335.726 38.32C333.539 38.32 331.566 37.8533 329.806 36.92C328.073 35.9867 326.699 34.6533 325.686 32.92C324.699 31.1867 324.206 29.16 324.206 26.84C324.206 24.5467 324.713 22.5333 325.726 20.8C326.739 19.04 328.126 17.6933 329.886 16.76C331.646 15.8267 333.619 15.36 335.806 15.36C337.993 15.36 339.966 15.8267 341.726 16.76C343.486 17.6933 344.873 19.04 345.886 20.8C346.899 22.5333 347.406 24.5467 347.406 26.84C347.406 29.1333 346.886 31.16 345.846 32.92C344.833 34.6533 343.433 35.9867 341.646 36.92C339.886 37.8533 337.913 38.32 335.726 38.32ZM335.726 32.4C337.033 32.4 338.139 31.92 339.046 30.96C339.979 30 340.446 28.6267 340.446 26.84C340.446 25.0533 339.993 23.68 339.086 22.72C338.206 21.76 337.113 21.28 335.806 21.28C334.473 21.28 333.366 21.76 332.486 22.72C331.606 23.6533 331.166 25.0267 331.166 26.84C331.166 28.6267 331.593 30 332.446 30.96C333.326 31.92 334.419 32.4 335.726 32.4ZM379.515 15.44C382.288 15.44 384.488 16.28 386.115 17.96C387.768 19.64 388.595 21.9733 388.595 24.96V38H381.795V25.88C381.795 24.44 381.408 23.3333 380.635 22.56C379.888 21.76 378.848 21.36 377.515 21.36C376.181 21.36 375.128 21.76 374.355 22.56C373.608 23.3333 373.235 24.44 373.235 25.88V38H366.435V25.88C366.435 24.44 366.048 23.3333 365.275 22.56C364.528 21.76 363.488 21.36 362.155 21.36C360.821 21.36 359.768 21.76 358.995 22.56C358.248 23.3333 357.875 24.44 357.875 25.88V38H351.035V15.68H357.875V18.48C358.568 17.5467 359.475 16.8133 360.595 16.28C361.715 15.72 362.981 15.44 364.395 15.44C366.075 15.44 367.568 15.8 368.875 16.52C370.208 17.24 371.248 18.2667 371.995 19.6C372.768 18.3733 373.821 17.3733 375.155 16.6C376.488 15.8267 377.941 15.44 379.515 15.44ZM402.458 38.32C400.512 38.32 398.778 37.9867 397.258 37.32C395.738 36.6533 394.538 35.7467 393.658 34.6C392.778 33.4267 392.285 32.12 392.178 30.68H398.938C399.018 31.4533 399.378 32.08 400.018 32.56C400.658 33.04 401.445 33.28 402.378 33.28C403.232 33.28 403.885 33.12 404.338 32.8C404.818 32.4533 405.058 32.0133 405.058 31.48C405.058 30.84 404.725 30.3733 404.058 30.08C403.392 29.76 402.312 29.4133 400.818 29.04C399.218 28.6667 397.885 28.28 396.818 27.88C395.752 27.4533 394.832 26.8 394.058 25.92C393.285 25.0133 392.898 23.8 392.898 22.28C392.898 21 393.245 19.84 393.938 18.8C394.658 17.7333 395.698 16.8933 397.058 16.28C398.445 15.6667 400.085 15.36 401.978 15.36C404.778 15.36 406.978 16.0533 408.578 17.44C410.205 18.8267 411.138 20.6667 411.378 22.96H405.058C404.952 22.1867 404.605 21.5733 404.018 21.12C403.458 20.6667 402.712 20.44 401.778 20.44C400.978 20.44 400.365 20.6 399.938 20.92C399.512 21.2133 399.298 21.6267 399.298 22.16C399.298 22.8 399.632 23.28 400.298 23.6C400.992 23.92 402.058 24.24 403.498 24.56C405.152 24.9867 406.498 25.4133 407.538 25.84C408.578 26.24 409.485 26.9067 410.258 27.84C411.058 28.7467 411.472 29.9733 411.498 31.52C411.498 32.8267 411.125 34 410.378 35.04C409.658 36.0533 408.605 36.8533 407.218 37.44C405.858 38.0267 404.272 38.32 402.458 38.32ZM5.92 61.36C4.72 61.36 3.73333 61.0133 2.96 60.32C2.21333 59.6 1.84 58.72 1.84 57.68C1.84 56.6133 2.21333 55.7333 2.96 55.04C3.73333 54.32 4.72 53.96 5.92 53.96C7.09333 53.96 8.05333 54.32 8.8 55.04C9.57333 55.7333 9.96 56.6133 9.96 57.68C9.96 58.72 9.57333 59.6 8.8 60.32C8.05333 61.0133 7.09333 61.36 5.92 61.36ZM9.32 63.68V86H2.48V63.68H9.32ZM27.8769 63.44C30.4902 63.44 32.5702 64.2933 34.1169 66C35.6902 67.68 36.4769 70 36.4769 72.96V86H29.6769V73.88C29.6769 72.3867 29.2902 71.2267 28.5169 70.4C27.7435 69.5733 26.7035 69.16 25.3969 69.16C24.0902 69.16 23.0502 69.5733 22.2769 70.4C21.5035 71.2267 21.1169 72.3867 21.1169 73.88V86H14.2769V63.68H21.1169V66.64C21.8102 65.6533 22.7435 64.88 23.9169 64.32C25.0902 63.7333 26.4102 63.44 27.8769 63.44ZM50.31 86.32C48.3633 86.32 46.63 85.9867 45.11 85.32C43.59 84.6533 42.39 83.7467 41.51 82.6C40.63 81.4267 40.1367 80.12 40.03 78.68H46.79C46.87 79.4533 47.23 80.08 47.87 80.56C48.51 81.04 49.2967 81.28 50.23 81.28C51.0833 81.28 51.7367 81.12 52.19 80.8C52.67 80.4533 52.91 80.0133 52.91 79.48C52.91 78.84 52.5767 78.3733 51.91 78.08C51.2433 77.76 50.1633 77.4133 48.67 77.04C47.07 76.6667 45.7367 76.28 44.67 75.88C43.6033 75.4533 42.6833 74.8 41.91 73.92C41.1367 73.0133 40.75 71.8 40.75 70.28C40.75 69 41.0967 67.84 41.79 66.8C42.51 65.7333 43.55 64.8933 44.91 64.28C46.2967 63.6667 47.9367 63.36 49.83 63.36C52.63 63.36 54.83 64.0533 56.43 65.44C58.0567 66.8267 58.99 68.6667 59.23 70.96H52.91C52.8033 70.1867 52.4567 69.5733 51.87 69.12C51.31 68.6667 50.5633 68.44 49.63 68.44C48.83 68.44 48.2167 68.6 47.79 68.92C47.3633 69.2133 47.15 69.6267 47.15 70.16C47.15 70.8 47.4833 71.28 48.15 71.6C48.8433 71.92 49.91 72.24 51.35 72.56C53.0033 72.9867 54.35 73.4133 55.39 73.84C56.43 74.24 57.3367 74.9067 58.11 75.84C58.91 76.7467 59.3233 77.9733 59.35 79.52C59.35 80.8267 58.9767 82 58.23 83.04C57.51 84.0533 56.4567 84.8533 55.07 85.44C53.71 86.0267 52.1233 86.32 50.31 86.32ZM70.3747 66.84C71.0414 65.8 71.9614 64.96 73.1347 64.32C74.308 63.68 75.6814 63.36 77.2547 63.36C79.0947 63.36 80.7614 63.8267 82.2547 64.76C83.748 65.6933 84.9214 67.0267 85.7747 68.76C86.6547 70.4933 87.0947 72.5067 87.0947 74.8C87.0947 77.0933 86.6547 79.12 85.7747 80.88C84.9214 82.6133 83.748 83.96 82.2547 84.92C80.7614 85.8533 79.0947 86.32 77.2547 86.32C75.708 86.32 74.3347 86 73.1347 85.36C71.9614 84.72 71.0414 83.8933 70.3747 82.88V96.64H63.5347V63.68H70.3747V66.84ZM80.1347 74.8C80.1347 73.0933 79.6547 71.76 78.6947 70.8C77.7614 69.8133 76.6014 69.32 75.2147 69.32C73.8547 69.32 72.6947 69.8133 71.7347 70.8C70.8014 71.7867 70.3347 73.1333 70.3347 74.84C70.3347 76.5467 70.8014 77.8933 71.7347 78.88C72.6947 79.8667 73.8547 80.36 75.2147 80.36C76.5747 80.36 77.7347 79.8667 78.6947 78.88C79.6547 77.8667 80.1347 76.5067 80.1347 74.8ZM94.1231 61.36C92.9231 61.36 91.9365 61.0133 91.1631 60.32C90.4165 59.6 90.0431 58.72 90.0431 57.68C90.0431 56.6133 90.4165 55.7333 91.1631 55.04C91.9365 54.32 92.9231 53.96 94.1231 53.96C95.2965 53.96 96.2565 54.32 97.0031 55.04C97.7765 55.7333 98.1631 56.6133 98.1631 57.68C98.1631 58.72 97.7765 59.6 97.0031 60.32C96.2565 61.0133 95.2965 61.36 94.1231 61.36ZM97.5231 63.68V86H90.6831V63.68H97.5231ZM109.32 67.4C110.12 66.1733 111.12 65.2133 112.32 64.52C113.52 63.8 114.853 63.44 116.32 63.44V70.68H114.44C112.733 70.68 111.453 71.0533 110.6 71.8C109.747 72.52 109.32 73.8 109.32 75.64V86H102.48V63.68H109.32V67.4ZM118.229 74.8C118.229 72.5067 118.656 70.4933 119.509 68.76C120.389 67.0267 121.576 65.6933 123.069 64.76C124.563 63.8267 126.229 63.36 128.069 63.36C129.643 63.36 131.016 63.68 132.189 64.32C133.389 64.96 134.309 65.8 134.949 66.84V63.68H141.789V86H134.949V82.84C134.283 83.88 133.349 84.72 132.149 85.36C130.976 86 129.603 86.32 128.029 86.32C126.216 86.32 124.563 85.8533 123.069 84.92C121.576 83.96 120.389 82.6133 119.509 80.88C118.656 79.12 118.229 77.0933 118.229 74.8ZM134.949 74.84C134.949 73.1333 134.469 71.7867 133.509 70.8C132.576 69.8133 131.429 69.32 130.069 69.32C128.709 69.32 127.549 69.8133 126.589 70.8C125.656 71.76 125.189 73.0933 125.189 74.8C125.189 76.5067 125.656 77.8667 126.589 78.88C127.549 79.8667 128.709 80.36 130.069 80.36C131.429 80.36 132.576 79.8667 133.509 78.88C134.469 77.8933 134.949 76.5467 134.949 74.84ZM159.178 80.2V86H155.698C153.218 86 151.284 85.4 149.898 84.2C148.511 82.9733 147.818 80.9867 147.818 78.24V69.36H145.098V63.68H147.818V58.24H154.658V63.68H159.138V69.36H154.658V78.32C154.658 78.9867 154.818 79.4667 155.138 79.76C155.458 80.0533 155.991 80.2 156.738 80.2H159.178ZM166.428 61.36C165.228 61.36 164.241 61.0133 163.468 60.32C162.721 59.6 162.348 58.72 162.348 57.68C162.348 56.6133 162.721 55.7333 163.468 55.04C164.241 54.32 165.228 53.96 166.428 53.96C167.601 53.96 168.561 54.32 169.308 55.04C170.081 55.7333 170.468 56.6133 170.468 57.68C170.468 58.72 170.081 59.6 169.308 60.32C168.561 61.0133 167.601 61.36 166.428 61.36ZM169.828 63.68V86H162.988V63.68H169.828ZM184.945 86.32C182.758 86.32 180.785 85.8533 179.025 84.92C177.291 83.9867 175.918 82.6533 174.905 80.92C173.918 79.1867 173.425 77.16 173.425 74.84C173.425 72.5467 173.931 70.5333 174.945 68.8C175.958 67.04 177.345 65.6933 179.105 64.76C180.865 63.8267 182.838 63.36 185.025 63.36C187.211 63.36 189.185 63.8267 190.945 64.76C192.705 65.6933 194.091 67.04 195.105 68.8C196.118 70.5333 196.625 72.5467 196.625 74.84C196.625 77.1333 196.105 79.16 195.065 80.92C194.051 82.6533 192.651 83.9867 190.865 84.92C189.105 85.8533 187.131 86.32 184.945 86.32ZM184.945 80.4C186.251 80.4 187.358 79.92 188.265 78.96C189.198 78 189.665 76.6267 189.665 74.84C189.665 73.0533 189.211 71.68 188.305 70.72C187.425 69.76 186.331 69.28 185.025 69.28C183.691 69.28 182.585 69.76 181.705 70.72C180.825 71.6533 180.385 73.0267 180.385 74.84C180.385 76.6267 180.811 78 181.665 78.96C182.545 79.92 183.638 80.4 184.945 80.4ZM213.853 63.44C216.467 63.44 218.547 64.2933 220.093 66C221.667 67.68 222.453 70 222.453 72.96V86H215.653V73.88C215.653 72.3867 215.267 71.2267 214.493 70.4C213.72 69.5733 212.68 69.16 211.373 69.16C210.067 69.16 209.027 69.5733 208.253 70.4C207.48 71.2267 207.093 72.3867 207.093 73.88V86H200.253V63.68H207.093V66.64C207.787 65.6533 208.72 64.88 209.893 64.32C211.067 63.7333 212.387 63.44 213.853 63.44Z" fill="#3A3A3A"/>
<path d="M6.272 121.112C5.23733 121.112 4.28267 120.872 3.408 120.392C2.544 119.901 1.856 119.224 1.344 118.36C0.842667 117.485 0.592 116.504 0.592 115.416C0.592 114.328 0.842667 113.352 1.344 112.488C1.856 111.624 2.544 110.952 3.408 110.472C4.28267 109.981 5.23733 109.736 6.272 109.736C7.31733 109.736 8.272 109.981 9.136 110.472C10.0107 110.952 10.6987 111.624 11.2 112.488C11.7013 113.352 11.952 114.328 11.952 115.416C11.952 116.504 11.7013 117.485 11.2 118.36C10.6987 119.224 10.0107 119.901 9.136 120.392C8.272 120.872 7.31733 121.112 6.272 121.112ZM6.272 119.528C7.008 119.528 7.664 119.363 8.24 119.032C8.816 118.691 9.264 118.211 9.584 117.592C9.91467 116.963 10.08 116.237 10.08 115.416C10.08 114.595 9.91467 113.875 9.584 113.256C9.264 112.637 8.816 112.163 8.24 111.832C7.664 111.501 7.008 111.336 6.272 111.336C5.536 111.336 4.88 111.501 4.304 111.832C3.728 112.163 3.27467 112.637 2.944 113.256C2.624 113.875 2.464 114.595 2.464 115.416C2.464 116.237 2.624 116.963 2.944 117.592C3.27467 118.211 3.728 118.691 4.304 119.032C4.88 119.363 5.536 119.528 6.272 119.528ZM21.7309 112.184V121H19.9069V119.96C19.6189 120.323 19.2402 120.611 18.7709 120.824C18.3122 121.027 17.8215 121.128 17.2989 121.128C16.6055 121.128 15.9815 120.984 15.4269 120.696C14.8829 120.408 14.4509 119.981 14.1309 119.416C13.8215 118.851 13.6669 118.168 13.6669 117.368V112.184H15.4749V117.096C15.4749 117.885 15.6722 118.493 16.0669 118.92C16.4615 119.336 17.0002 119.544 17.6829 119.544C18.3655 119.544 18.9042 119.336 19.2989 118.92C19.7042 118.493 19.9069 117.885 19.9069 117.096V112.184H21.7309ZM25.9615 113.464C26.2282 113.016 26.5802 112.669 27.0175 112.424C27.4655 112.168 27.9935 112.04 28.6015 112.04V113.928H28.1375C27.4228 113.928 26.8788 114.109 26.5055 114.472C26.1428 114.835 25.9615 115.464 25.9615 116.36V121H24.1375V112.184H25.9615V113.464ZM33.8264 116.552C33.8264 115.667 34.0077 114.883 34.3704 114.2C34.7437 113.517 35.245 112.989 35.8744 112.616C36.5144 112.232 37.2237 112.04 38.0024 112.04C38.5784 112.04 39.1437 112.168 39.6984 112.424C40.2637 112.669 40.7117 113 41.0424 113.416V109.16H42.8824V121H41.0424V119.672C40.7437 120.099 40.3277 120.451 39.7944 120.728C39.2717 121.005 38.669 121.144 37.9864 121.144C37.2184 121.144 36.5144 120.952 35.8744 120.568C35.245 120.173 34.7437 119.629 34.3704 118.936C34.0077 118.232 33.8264 117.437 33.8264 116.552ZM41.0424 116.584C41.0424 115.976 40.9144 115.448 40.6584 115C40.413 114.552 40.0877 114.211 39.6824 113.976C39.277 113.741 38.8397 113.624 38.3704 113.624C37.901 113.624 37.4637 113.741 37.0584 113.976C36.653 114.2 36.3224 114.536 36.0664 114.984C35.821 115.421 35.6984 115.944 35.6984 116.552C35.6984 117.16 35.821 117.693 36.0664 118.152C36.3224 118.611 36.653 118.963 37.0584 119.208C37.4744 119.443 37.9117 119.56 38.3704 119.56C38.8397 119.56 39.277 119.443 39.6824 119.208C40.0877 118.973 40.413 118.632 40.6584 118.184C40.9144 117.725 41.0424 117.192 41.0424 116.584ZM53.3581 116.376C53.3581 116.707 53.3368 117.005 53.2941 117.272H46.5581C46.6115 117.976 46.8728 118.541 47.3421 118.968C47.8115 119.395 48.3875 119.608 49.0701 119.608C50.0515 119.608 50.7448 119.197 51.1501 118.376H53.1181C52.8515 119.187 52.3661 119.853 51.6621 120.376C50.9688 120.888 50.1048 121.144 49.0701 121.144C48.2275 121.144 47.4701 120.957 46.7981 120.584C46.1368 120.2 45.6141 119.667 45.2301 118.984C44.8568 118.291 44.6701 117.491 44.6701 116.584C44.6701 115.677 44.8515 114.883 45.2141 114.2C45.5875 113.507 46.1048 112.973 46.7661 112.6C47.4381 112.227 48.2061 112.04 49.0701 112.04C49.9021 112.04 50.6435 112.221 51.2941 112.584C51.9448 112.947 52.4515 113.459 52.8141 114.12C53.1768 114.771 53.3581 115.523 53.3581 116.376ZM51.4541 115.8C51.4435 115.128 51.2035 114.589 50.7341 114.184C50.2648 113.779 49.6835 113.576 48.9901 113.576C48.3608 113.576 47.8221 113.779 47.3741 114.184C46.9261 114.579 46.6595 115.117 46.5741 115.8H51.4541ZM58.3531 121.144C57.6598 121.144 57.0358 121.021 56.4811 120.776C55.9371 120.52 55.5051 120.179 55.1851 119.752C54.8651 119.315 54.6945 118.829 54.6731 118.296H56.5611C56.5931 118.669 56.7691 118.984 57.0891 119.24C57.4198 119.485 57.8305 119.608 58.3211 119.608C58.8331 119.608 59.2278 119.512 59.5051 119.32C59.7931 119.117 59.9371 118.861 59.9371 118.552C59.9371 118.221 59.7771 117.976 59.4571 117.816C59.1478 117.656 58.6518 117.48 57.9691 117.288C57.3078 117.107 56.7691 116.931 56.3531 116.76C55.9371 116.589 55.5745 116.328 55.2651 115.976C54.9665 115.624 54.8171 115.16 54.8171 114.584C54.8171 114.115 54.9558 113.688 55.2331 113.304C55.5105 112.909 55.9051 112.6 56.4171 112.376C56.9398 112.152 57.5371 112.04 58.2091 112.04C59.2118 112.04 60.0171 112.296 60.6251 112.808C61.2438 113.309 61.5745 113.997 61.6171 114.872H59.7931C59.7611 114.477 59.6011 114.163 59.3131 113.928C59.0251 113.693 58.6358 113.576 58.1451 113.576C57.6651 113.576 57.2971 113.667 57.0411 113.848C56.7851 114.029 56.6571 114.269 56.6571 114.568C56.6571 114.803 56.7425 115 56.9131 115.16C57.0838 115.32 57.2918 115.448 57.5371 115.544C57.7825 115.629 58.1451 115.741 58.6251 115.88C59.2651 116.051 59.7878 116.227 60.1931 116.408C60.6091 116.579 60.9665 116.835 61.2651 117.176C61.5638 117.517 61.7185 117.971 61.7291 118.536C61.7291 119.037 61.5905 119.485 61.3131 119.88C61.0358 120.275 60.6411 120.584 60.1291 120.808C59.6278 121.032 59.0358 121.144 58.3531 121.144ZM64.628 111.016C64.2973 111.016 64.02 110.904 63.796 110.68C63.572 110.456 63.46 110.179 63.46 109.848C63.46 109.517 63.572 109.24 63.796 109.016C64.02 108.792 64.2973 108.68 64.628 108.68C64.948 108.68 65.22 108.792 65.444 109.016C65.668 109.24 65.78 109.517 65.78 109.848C65.78 110.179 65.668 110.456 65.444 110.68C65.22 110.904 64.948 111.016 64.628 111.016ZM65.524 112.184V121H63.7V112.184H65.524ZM71.4708 112.04C72.1534 112.04 72.7561 112.179 73.2788 112.456C73.8121 112.723 74.2281 113.059 74.5268 113.464V112.184H76.3668V121.144C76.3668 121.955 76.1961 122.675 75.8548 123.304C75.5134 123.944 75.0174 124.445 74.3668 124.808C73.7268 125.171 72.9588 125.352 72.0628 125.352C70.8681 125.352 69.8761 125.069 69.0868 124.504C68.2974 123.949 67.8494 123.192 67.7428 122.232H69.5508C69.6894 122.691 69.9828 123.059 70.4308 123.336C70.8894 123.624 71.4334 123.768 72.0628 123.768C72.7988 123.768 73.3908 123.544 73.8388 123.096C74.2974 122.648 74.5268 121.997 74.5268 121.144V119.672C74.2174 120.088 73.7961 120.44 73.2628 120.728C72.7401 121.005 72.1428 121.144 71.4708 121.144C70.7028 121.144 69.9988 120.952 69.3588 120.568C68.7294 120.173 68.2281 119.629 67.8548 118.936C67.4921 118.232 67.3108 117.437 67.3108 116.552C67.3108 115.667 67.4921 114.883 67.8548 114.2C68.2281 113.517 68.7294 112.989 69.3588 112.616C69.9988 112.232 70.7028 112.04 71.4708 112.04ZM74.5268 116.584C74.5268 115.976 74.3988 115.448 74.1428 115C73.8974 114.552 73.5721 114.211 73.1668 113.976C72.7614 113.741 72.3241 113.624 71.8548 113.624C71.3854 113.624 70.9481 113.741 70.5428 113.976C70.1374 114.2 69.8068 114.536 69.5508 114.984C69.3054 115.421 69.1828 115.944 69.1828 116.552C69.1828 117.16 69.3054 117.693 69.5508 118.152C69.8068 118.611 70.1374 118.963 70.5428 119.208C70.9588 119.443 71.3961 119.56 71.8548 119.56C72.3241 119.56 72.7614 119.443 73.1668 119.208C73.5721 118.973 73.8974 118.632 74.1428 118.184C74.3988 117.725 74.5268 117.192 74.5268 116.584ZM83.2105 112.04C83.9038 112.04 84.5225 112.184 85.0665 112.472C85.6212 112.76 86.0532 113.187 86.3625 113.752C86.6718 114.317 86.8265 115 86.8265 115.8V121H85.0185V116.072C85.0185 115.283 84.8212 114.68 84.4265 114.264C84.0318 113.837 83.4932 113.624 82.8105 113.624C82.1278 113.624 81.5838 113.837 81.1785 114.264C80.7838 114.68 80.5865 115.283 80.5865 116.072V121H78.7625V112.184H80.5865V113.192C80.8852 112.829 81.2638 112.547 81.7225 112.344C82.1918 112.141 82.6878 112.04 83.2105 112.04ZM97.2331 116.376C97.2331 116.707 97.2118 117.005 97.1691 117.272H90.4331C90.4865 117.976 90.7478 118.541 91.2171 118.968C91.6865 119.395 92.2625 119.608 92.9451 119.608C93.9265 119.608 94.6198 119.197 95.0251 118.376H96.9931C96.7265 119.187 96.2411 119.853 95.5371 120.376C94.8438 120.888 93.9798 121.144 92.9451 121.144C92.1025 121.144 91.3451 120.957 90.6731 120.584C90.0118 120.2 89.4891 119.667 89.1051 118.984C88.7318 118.291 88.5451 117.491 88.5451 116.584C88.5451 115.677 88.7265 114.883 89.0891 114.2C89.4625 113.507 89.9798 112.973 90.6411 112.6C91.3131 112.227 92.0811 112.04 92.9451 112.04C93.7771 112.04 94.5185 112.221 95.1691 112.584C95.8198 112.947 96.3265 113.459 96.6891 114.12C97.0518 114.771 97.2331 115.523 97.2331 116.376ZM95.3291 115.8C95.3185 115.128 95.0785 114.589 94.6091 114.184C94.1398 113.779 93.5585 113.576 92.8651 113.576C92.2358 113.576 91.6971 113.779 91.2491 114.184C90.8011 114.579 90.5345 115.117 90.4491 115.8H95.3291ZM100.852 113.464C101.119 113.016 101.471 112.669 101.908 112.424C102.356 112.168 102.884 112.04 103.492 112.04V113.928H103.028C102.313 113.928 101.769 114.109 101.396 114.472C101.033 114.835 100.852 115.464 100.852 116.36V121H99.0281V112.184H100.852V113.464ZM108.717 116.552C108.717 115.667 108.898 114.883 109.261 114.2C109.634 113.517 110.136 112.989 110.765 112.616C111.405 112.232 112.109 112.04 112.877 112.04C113.57 112.04 114.173 112.179 114.685 112.456C115.208 112.723 115.624 113.059 115.933 113.464V112.184H117.773V121H115.933V119.688C115.624 120.104 115.202 120.451 114.669 120.728C114.136 121.005 113.528 121.144 112.845 121.144C112.088 121.144 111.394 120.952 110.765 120.568C110.136 120.173 109.634 119.629 109.261 118.936C108.898 118.232 108.717 117.437 108.717 116.552ZM115.933 116.584C115.933 115.976 115.805 115.448 115.549 115C115.304 114.552 114.978 114.211 114.573 113.976C114.168 113.741 113.73 113.624 113.261 113.624C112.792 113.624 112.354 113.741 111.949 113.976C111.544 114.2 111.213 114.536 110.957 114.984C110.712 115.421 110.589 115.944 110.589 116.552C110.589 117.16 110.712 117.693 110.957 118.152C111.213 118.611 111.544 118.963 111.949 119.208C112.365 119.443 112.802 119.56 113.261 119.56C113.73 119.56 114.168 119.443 114.573 119.208C114.978 118.973 115.304 118.632 115.549 118.184C115.805 117.725 115.933 117.192 115.933 116.584ZM121.993 109.16V121H120.169V109.16H121.993ZM126.212 113.464C126.478 113.016 126.83 112.669 127.268 112.424C127.716 112.168 128.244 112.04 128.852 112.04V113.928H128.388C127.673 113.928 127.129 114.109 126.756 114.472C126.393 114.835 126.212 115.464 126.212 116.36V121H124.388V112.184H126.212V113.464ZM138.608 116.376C138.608 116.707 138.587 117.005 138.544 117.272H131.808C131.861 117.976 132.123 118.541 132.592 118.968C133.061 119.395 133.637 119.608 134.32 119.608C135.301 119.608 135.995 119.197 136.4 118.376H138.368C138.101 119.187 137.616 119.853 136.912 120.376C136.219 120.888 135.355 121.144 134.32 121.144C133.477 121.144 132.72 120.957 132.048 120.584C131.387 120.2 130.864 119.667 130.48 118.984C130.107 118.291 129.92 117.491 129.92 116.584C129.92 115.677 130.101 114.883 130.464 114.2C130.837 113.507 131.355 112.973 132.016 112.6C132.688 112.227 133.456 112.04 134.32 112.04C135.152 112.04 135.893 112.221 136.544 112.584C137.195 112.947 137.701 113.459 138.064 114.12C138.427 114.771 138.608 115.523 138.608 116.376ZM136.704 115.8C136.693 115.128 136.453 114.589 135.984 114.184C135.515 113.779 134.933 113.576 134.24 113.576C133.611 113.576 133.072 113.779 132.624 114.184C132.176 114.579 131.909 115.117 131.824 115.8H136.704ZM139.795 116.552C139.795 115.667 139.976 114.883 140.339 114.2C140.712 113.517 141.214 112.989 141.843 112.616C142.483 112.232 143.187 112.04 143.955 112.04C144.648 112.04 145.251 112.179 145.763 112.456C146.286 112.723 146.702 113.059 147.011 113.464V112.184H148.851V121H147.011V119.688C146.702 120.104 146.28 120.451 145.747 120.728C145.214 121.005 144.606 121.144 143.923 121.144C143.166 121.144 142.472 120.952 141.843 120.568C141.214 120.173 140.712 119.629 140.339 118.936C139.976 118.232 139.795 117.437 139.795 116.552ZM147.011 116.584C147.011 115.976 146.883 115.448 146.627 115C146.382 114.552 146.056 114.211 145.651 113.976C145.246 113.741 144.808 113.624 144.339 113.624C143.87 113.624 143.432 113.741 143.027 113.976C142.622 114.2 142.291 114.536 142.035 114.984C141.79 115.421 141.667 115.944 141.667 116.552C141.667 117.16 141.79 117.693 142.035 118.152C142.291 118.611 142.622 118.963 143.027 119.208C143.443 119.443 143.88 119.56 144.339 119.56C144.808 119.56 145.246 119.443 145.651 119.208C146.056 118.973 146.382 118.632 146.627 118.184C146.883 117.725 147.011 117.192 147.011 116.584ZM150.639 116.552C150.639 115.667 150.82 114.883 151.183 114.2C151.556 113.517 152.058 112.989 152.687 112.616C153.327 112.232 154.036 112.04 154.815 112.04C155.391 112.04 155.956 112.168 156.511 112.424C157.076 112.669 157.524 113 157.855 113.416V109.16H159.695V121H157.855V119.672C157.556 120.099 157.14 120.451 156.607 120.728C156.084 121.005 155.482 121.144 154.799 121.144C154.031 121.144 153.327 120.952 152.687 120.568C152.058 120.173 151.556 119.629 151.183 118.936C150.82 118.232 150.639 117.437 150.639 116.552ZM157.855 116.584C157.855 115.976 157.727 115.448 157.471 115C157.226 114.552 156.9 114.211 156.495 113.976C156.09 113.741 155.652 113.624 155.183 113.624C154.714 113.624 154.276 113.741 153.871 113.976C153.466 114.2 153.135 114.536 152.879 114.984C152.634 115.421 152.511 115.944 152.511 116.552C152.511 117.16 152.634 117.693 152.879 118.152C153.135 118.611 153.466 118.963 153.871 119.208C154.287 119.443 154.724 119.56 155.183 119.56C155.652 119.56 156.09 119.443 156.495 119.208C156.9 118.973 157.226 118.632 157.471 118.184C157.727 117.725 157.855 117.192 157.855 116.584ZM170.027 112.184L164.619 125.144H162.731L164.523 120.856L161.051 112.184H163.083L165.563 118.904L168.139 112.184H170.027ZM186.231 112.04C186.925 112.04 187.543 112.184 188.087 112.472C188.642 112.76 189.074 113.187 189.383 113.752C189.703 114.317 189.863 115 189.863 115.8V121H188.055V116.072C188.055 115.283 187.858 114.68 187.463 114.264C187.069 113.837 186.53 113.624 185.847 113.624C185.165 113.624 184.621 113.837 184.215 114.264C183.821 114.68 183.623 115.283 183.623 116.072V121H181.815V116.072C181.815 115.283 181.618 114.68 181.223 114.264C180.829 113.837 180.29 113.624 179.607 113.624C178.925 113.624 178.381 113.837 177.975 114.264C177.581 114.68 177.383 115.283 177.383 116.072V121H175.559V112.184H177.383V113.192C177.682 112.829 178.061 112.547 178.519 112.344C178.978 112.141 179.469 112.04 179.991 112.04C180.695 112.04 181.325 112.189 181.879 112.488C182.434 112.787 182.861 113.219 183.159 113.784C183.426 113.251 183.842 112.829 184.407 112.52C184.973 112.2 185.581 112.04 186.231 112.04ZM191.576 116.552C191.576 115.667 191.758 114.883 192.12 114.2C192.494 113.517 192.995 112.989 193.624 112.616C194.264 112.232 194.968 112.04 195.736 112.04C196.43 112.04 197.032 112.179 197.544 112.456C198.067 112.723 198.483 113.059 198.792 113.464V112.184H200.632V121H198.792V119.688C198.483 120.104 198.062 120.451 197.528 120.728C196.995 121.005 196.387 121.144 195.704 121.144C194.947 121.144 194.254 120.952 193.624 120.568C192.995 120.173 192.494 119.629 192.12 118.936C191.758 118.232 191.576 117.437 191.576 116.552ZM198.792 116.584C198.792 115.976 198.664 115.448 198.408 115C198.163 114.552 197.838 114.211 197.432 113.976C197.027 113.741 196.59 113.624 196.12 113.624C195.651 113.624 195.214 113.741 194.808 113.976C194.403 114.2 194.072 114.536 193.816 114.984C193.571 115.421 193.448 115.944 193.448 116.552C193.448 117.16 193.571 117.693 193.816 118.152C194.072 118.611 194.403 118.963 194.808 119.208C195.224 119.443 195.662 119.56 196.12 119.56C196.59 119.56 197.027 119.443 197.432 119.208C197.838 118.973 198.163 118.632 198.408 118.184C198.664 117.725 198.792 117.192 198.792 116.584ZM202.42 116.552C202.42 115.667 202.601 114.883 202.964 114.2C203.337 113.517 203.839 112.989 204.468 112.616C205.108 112.232 205.817 112.04 206.596 112.04C207.172 112.04 207.737 112.168 208.292 112.424C208.857 112.669 209.305 113 209.636 113.416V109.16H211.476V121H209.636V119.672C209.337 120.099 208.921 120.451 208.388 120.728C207.865 121.005 207.263 121.144 206.58 121.144C205.812 121.144 205.108 120.952 204.468 120.568C203.839 120.173 203.337 119.629 202.964 118.936C202.601 118.232 202.42 117.437 202.42 116.552ZM209.636 116.584C209.636 115.976 209.508 115.448 209.252 115C209.007 114.552 208.681 114.211 208.276 113.976C207.871 113.741 207.433 113.624 206.964 113.624C206.495 113.624 206.057 113.741 205.652 113.976C205.247 114.2 204.916 114.536 204.66 114.984C204.415 115.421 204.292 115.944 204.292 116.552C204.292 117.16 204.415 117.693 204.66 118.152C204.916 118.611 205.247 118.963 205.652 119.208C206.068 119.443 206.505 119.56 206.964 119.56C207.433 119.56 207.871 119.443 208.276 119.208C208.681 118.973 209.007 118.632 209.252 118.184C209.508 117.725 209.636 117.192 209.636 116.584ZM221.952 116.376C221.952 116.707 221.931 117.005 221.888 117.272H215.152C215.205 117.976 215.467 118.541 215.936 118.968C216.405 119.395 216.981 119.608 217.664 119.608C218.645 119.608 219.339 119.197 219.744 118.376H221.712C221.445 119.187 220.96 119.853 220.256 120.376C219.563 120.888 218.699 121.144 217.664 121.144C216.821 121.144 216.064 120.957 215.392 120.584C214.731 120.2 214.208 119.667 213.824 118.984C213.451 118.291 213.264 117.491 213.264 116.584C213.264 115.677 213.445 114.883 213.808 114.2C214.181 113.507 214.699 112.973 215.36 112.6C216.032 112.227 216.8 112.04 217.664 112.04C218.496 112.04 219.237 112.221 219.888 112.584C220.539 112.947 221.045 113.459 221.408 114.12C221.771 114.771 221.952 115.523 221.952 116.376ZM220.048 115.8C220.037 115.128 219.797 114.589 219.328 114.184C218.859 113.779 218.277 113.576 217.584 113.576C216.955 113.576 216.416 113.779 215.968 114.184C215.52 114.579 215.253 115.117 215.168 115.8H220.048ZM227.295 116.552C227.295 115.667 227.476 114.883 227.839 114.2C228.212 113.517 228.714 112.989 229.343 112.616C229.983 112.232 230.687 112.04 231.455 112.04C232.148 112.04 232.751 112.179 233.263 112.456C233.786 112.723 234.202 113.059 234.511 113.464V112.184H236.351V121H234.511V119.688C234.202 120.104 233.78 120.451 233.247 120.728C232.714 121.005 232.106 121.144 231.423 121.144C230.666 121.144 229.972 120.952 229.343 120.568C228.714 120.173 228.212 119.629 227.839 118.936C227.476 118.232 227.295 117.437 227.295 116.552ZM234.511 116.584C234.511 115.976 234.383 115.448 234.127 115C233.882 114.552 233.556 114.211 233.151 113.976C232.746 113.741 232.308 113.624 231.839 113.624C231.37 113.624 230.932 113.741 230.527 113.976C230.122 114.2 229.791 114.536 229.535 114.984C229.29 115.421 229.167 115.944 229.167 116.552C229.167 117.16 229.29 117.693 229.535 118.152C229.791 118.611 230.122 118.963 230.527 119.208C230.943 119.443 231.38 119.56 231.839 119.56C232.308 119.56 232.746 119.443 233.151 119.208C233.556 118.973 233.882 118.632 234.127 118.184C234.383 117.725 234.511 117.192 234.511 116.584ZM244.727 109.16V121H242.903V109.16H244.727ZM250.946 121.144C250.114 121.144 249.362 120.957 248.69 120.584C248.018 120.2 247.49 119.667 247.106 118.984C246.722 118.291 246.53 117.491 246.53 116.584C246.53 115.688 246.727 114.893 247.122 114.2C247.517 113.507 248.055 112.973 248.738 112.6C249.421 112.227 250.183 112.04 251.026 112.04C251.869 112.04 252.631 112.227 253.314 112.6C253.997 112.973 254.535 113.507 254.93 114.2C255.325 114.893 255.522 115.688 255.522 116.584C255.522 117.48 255.319 118.275 254.914 118.968C254.509 119.661 253.954 120.2 253.25 120.584C252.557 120.957 251.789 121.144 250.946 121.144ZM250.946 119.56C251.415 119.56 251.853 119.448 252.258 119.224C252.674 119 253.01 118.664 253.266 118.216C253.522 117.768 253.65 117.224 253.65 116.584C253.65 115.944 253.527 115.405 253.282 114.968C253.037 114.52 252.711 114.184 252.306 113.96C251.901 113.736 251.463 113.624 250.994 113.624C250.525 113.624 250.087 113.736 249.682 113.96C249.287 114.184 248.973 114.52 248.738 114.968C248.503 115.405 248.386 115.944 248.386 116.584C248.386 117.533 248.626 118.269 249.106 118.792C249.597 119.304 250.21 119.56 250.946 119.56ZM259.453 113.672V118.552C259.453 118.883 259.528 119.123 259.677 119.272C259.837 119.411 260.104 119.48 260.477 119.48H261.597V121H260.157C259.336 121 258.706 120.808 258.269 120.424C257.832 120.04 257.613 119.416 257.613 118.552V113.672H256.573V112.184H257.613V109.992H259.453V112.184H261.597V113.672H259.453ZM271.258 121.144C270.426 121.144 269.674 120.957 269.002 120.584C268.33 120.2 267.802 119.667 267.418 118.984C267.034 118.291 266.842 117.491 266.842 116.584C266.842 115.688 267.04 114.893 267.434 114.2C267.829 113.507 268.368 112.973 269.05 112.6C269.733 112.227 270.496 112.04 271.338 112.04C272.181 112.04 272.944 112.227 273.626 112.6C274.309 112.973 274.848 113.507 275.242 114.2C275.637 114.893 275.834 115.688 275.834 116.584C275.834 117.48 275.632 118.275 275.226 118.968C274.821 119.661 274.266 120.2 273.562 120.584C272.869 120.957 272.101 121.144 271.258 121.144ZM271.258 119.56C271.728 119.56 272.165 119.448 272.57 119.224C272.986 119 273.322 118.664 273.578 118.216C273.834 117.768 273.962 117.224 273.962 116.584C273.962 115.944 273.84 115.405 273.594 114.968C273.349 114.52 273.024 114.184 272.618 113.96C272.213 113.736 271.776 113.624 271.306 113.624C270.837 113.624 270.4 113.736 269.994 113.96C269.6 114.184 269.285 114.52 269.05 114.968C268.816 115.405 268.698 115.944 268.698 116.584C268.698 117.533 268.938 118.269 269.418 118.792C269.909 119.304 270.522 119.56 271.258 119.56ZM281.334 113.672H279.702V121H277.862V113.672H276.822V112.184H277.862V111.56C277.862 110.547 278.128 109.811 278.662 109.352C279.206 108.883 280.054 108.648 281.206 108.648V110.168C280.651 110.168 280.262 110.275 280.038 110.488C279.814 110.691 279.702 111.048 279.702 111.56V112.184H281.334V113.672ZM288.93 113.496C289.24 113.069 289.661 112.723 290.194 112.456C290.738 112.179 291.341 112.04 292.002 112.04C292.781 112.04 293.485 112.227 294.114 112.6C294.744 112.973 295.24 113.507 295.602 114.2C295.965 114.883 296.146 115.667 296.146 116.552C296.146 117.437 295.965 118.232 295.602 118.936C295.24 119.629 294.738 120.173 294.098 120.568C293.469 120.952 292.77 121.144 292.002 121.144C291.32 121.144 290.712 121.011 290.178 120.744C289.656 120.477 289.24 120.136 288.93 119.72V121H287.106V109.16H288.93V113.496ZM294.29 116.552C294.29 115.944 294.162 115.421 293.906 114.984C293.661 114.536 293.33 114.2 292.914 113.976C292.509 113.741 292.072 113.624 291.602 113.624C291.144 113.624 290.706 113.741 290.29 113.976C289.885 114.211 289.554 114.552 289.298 115C289.053 115.448 288.93 115.976 288.93 116.584C288.93 117.192 289.053 117.725 289.298 118.184C289.554 118.632 289.885 118.973 290.29 119.208C290.706 119.443 291.144 119.56 291.602 119.56C292.072 119.56 292.509 119.443 292.914 119.208C293.33 118.963 293.661 118.611 293.906 118.152C294.162 117.693 294.29 117.16 294.29 116.552ZM306.03 116.376C306.03 116.707 306.009 117.005 305.966 117.272H299.23C299.283 117.976 299.545 118.541 300.014 118.968C300.483 119.395 301.059 119.608 301.742 119.608C302.723 119.608 303.417 119.197 303.822 118.376H305.79C305.523 119.187 305.038 119.853 304.334 120.376C303.641 120.888 302.777 121.144 301.742 121.144C300.899 121.144 300.142 120.957 299.47 120.584C298.809 120.2 298.286 119.667 297.902 118.984C297.529 118.291 297.342 117.491 297.342 116.584C297.342 115.677 297.523 114.883 297.886 114.2C298.259 113.507 298.777 112.973 299.438 112.6C300.11 112.227 300.878 112.04 301.742 112.04C302.574 112.04 303.315 112.221 303.966 112.584C304.617 112.947 305.123 113.459 305.486 114.12C305.849 114.771 306.03 115.523 306.03 116.376ZM304.126 115.8C304.115 115.128 303.875 114.589 303.406 114.184C302.937 113.779 302.355 113.576 301.662 113.576C301.033 113.576 300.494 113.779 300.046 114.184C299.598 114.579 299.331 115.117 299.246 115.8H304.126ZM307.217 116.552C307.217 115.667 307.398 114.883 307.761 114.2C308.134 113.517 308.636 112.989 309.265 112.616C309.905 112.232 310.609 112.04 311.377 112.04C312.07 112.04 312.673 112.179 313.185 112.456C313.708 112.723 314.124 113.059 314.433 113.464V112.184H316.273V121H314.433V119.688C314.124 120.104 313.702 120.451 313.169 120.728C312.636 121.005 312.028 121.144 311.345 121.144C310.588 121.144 309.894 120.952 309.265 120.568C308.636 120.173 308.134 119.629 307.761 118.936C307.398 118.232 307.217 117.437 307.217 116.552ZM314.433 116.584C314.433 115.976 314.305 115.448 314.049 115C313.804 114.552 313.478 114.211 313.073 113.976C312.668 113.741 312.23 113.624 311.761 113.624C311.292 113.624 310.854 113.741 310.449 113.976C310.044 114.2 309.713 114.536 309.457 114.984C309.212 115.421 309.089 115.944 309.089 116.552C309.089 117.16 309.212 117.693 309.457 118.152C309.713 118.611 310.044 118.963 310.449 119.208C310.865 119.443 311.302 119.56 311.761 119.56C312.23 119.56 312.668 119.443 313.073 119.208C313.478 118.973 313.804 118.632 314.049 118.184C314.305 117.725 314.433 117.192 314.433 116.584ZM326.653 112.184V121H324.829V119.96C324.541 120.323 324.162 120.611 323.693 120.824C323.234 121.027 322.743 121.128 322.221 121.128C321.527 121.128 320.903 120.984 320.349 120.696C319.805 120.408 319.373 119.981 319.053 119.416C318.743 118.851 318.589 118.168 318.589 117.368V112.184H320.397V117.096C320.397 117.885 320.594 118.493 320.989 118.92C321.383 119.336 321.922 119.544 322.605 119.544C323.287 119.544 323.826 119.336 324.221 118.92C324.626 118.493 324.829 117.885 324.829 117.096V112.184H326.653ZM331.187 113.672V118.552C331.187 118.883 331.262 119.123 331.411 119.272C331.571 119.411 331.838 119.48 332.211 119.48H333.331V121H331.891C331.07 121 330.441 120.808 330.003 120.424C329.566 120.04 329.347 119.416 329.347 118.552V113.672H328.307V112.184H329.347V109.992H331.187V112.184H333.331V113.672H331.187ZM335.941 111.016C335.61 111.016 335.333 110.904 335.109 110.68C334.885 110.456 334.773 110.179 334.773 109.848C334.773 109.517 334.885 109.24 335.109 109.016C335.333 108.792 335.61 108.68 335.941 108.68C336.261 108.68 336.533 108.792 336.757 109.016C336.981 109.24 337.093 109.517 337.093 109.848C337.093 110.179 336.981 110.456 336.757 110.68C336.533 110.904 336.261 111.016 335.941 111.016ZM336.837 112.184V121H335.013V112.184H336.837ZM342.927 113.672H341.295V121H339.455V113.672H338.415V112.184H339.455V111.56C339.455 110.547 339.722 109.811 340.255 109.352C340.799 108.883 341.647 108.648 342.799 108.648V110.168C342.245 110.168 341.855 110.275 341.631 110.488C341.407 110.691 341.295 111.048 341.295 111.56V112.184H342.927V113.672ZM352.528 112.184V121H350.704V119.96C350.416 120.323 350.037 120.611 349.568 120.824C349.109 121.027 348.618 121.128 348.096 121.128C347.402 121.128 346.778 120.984 346.224 120.696C345.68 120.408 345.248 119.981 344.928 119.416C344.618 118.851 344.464 118.168 344.464 117.368V112.184H346.272V117.096C346.272 117.885 346.469 118.493 346.864 118.92C347.258 119.336 347.797 119.544 348.48 119.544C349.162 119.544 349.701 119.336 350.096 118.92C350.501 118.493 350.704 117.885 350.704 117.096V112.184H352.528ZM356.758 109.16V121H354.934V109.16H356.758ZM3.024 137.48C3.33333 137.075 3.75467 136.733 4.288 136.456C4.82133 136.179 5.424 136.04 6.096 136.04C6.864 136.04 7.56267 136.232 8.192 136.616C8.832 136.989 9.33333 137.517 9.696 138.2C10.0587 138.883 10.24 139.667 10.24 140.552C10.24 141.437 10.0587 142.232 9.696 142.936C9.33333 143.629 8.832 144.173 8.192 144.568C7.56267 144.952 6.864 145.144 6.096 145.144C5.424 145.144 4.82667 145.011 4.304 144.744C3.78133 144.467 3.35467 144.125 3.024 143.72V149.192H1.2V136.184H3.024V137.48ZM8.384 140.552C8.384 139.944 8.256 139.421 8 138.984C7.75467 138.536 7.424 138.2 7.008 137.976C6.60267 137.741 6.16533 137.624 5.696 137.624C5.23733 137.624 4.8 137.741 4.384 137.976C3.97867 138.211 3.648 138.552 3.392 139C3.14667 139.448 3.024 139.976 3.024 140.584C3.024 141.192 3.14667 141.725 3.392 142.184C3.648 142.632 3.97867 142.973 4.384 143.208C4.8 143.443 5.23733 143.56 5.696 143.56C6.16533 143.56 6.60267 143.443 7.008 143.208C7.424 142.963 7.75467 142.611 8 142.152C8.256 141.693 8.384 141.16 8.384 140.552ZM13.8678 137.464C14.1344 137.016 14.4864 136.669 14.9238 136.424C15.3718 136.168 15.8998 136.04 16.5078 136.04V137.928H16.0438C15.3291 137.928 14.7851 138.109 14.4118 138.472C14.0491 138.835 13.8678 139.464 13.8678 140.36V145H12.0438V136.184H13.8678V137.464ZM22.0084 145.144C21.1764 145.144 20.4244 144.957 19.7524 144.584C19.0804 144.2 18.5524 143.667 18.1684 142.984C17.7844 142.291 17.5924 141.491 17.5924 140.584C17.5924 139.688 17.7897 138.893 18.1844 138.2C18.579 137.507 19.1177 136.973 19.8004 136.6C20.483 136.227 21.2457 136.04 22.0884 136.04C22.931 136.04 23.6937 136.227 24.3764 136.6C25.059 136.973 25.5977 137.507 25.9924 138.2C26.387 138.893 26.5844 139.688 26.5844 140.584C26.5844 141.48 26.3817 142.275 25.9764 142.968C25.571 143.661 25.0164 144.2 24.3124 144.584C23.619 144.957 22.851 145.144 22.0084 145.144ZM22.0084 143.56C22.4777 143.56 22.915 143.448 23.3204 143.224C23.7364 143 24.0724 142.664 24.3284 142.216C24.5844 141.768 24.7124 141.224 24.7124 140.584C24.7124 139.944 24.5897 139.405 24.3444 138.968C24.099 138.52 23.7737 138.184 23.3684 137.96C22.963 137.736 22.5257 137.624 22.0564 137.624C21.587 137.624 21.1497 137.736 20.7444 137.96C20.3497 138.184 20.035 138.52 19.8004 138.968C19.5657 139.405 19.4484 139.944 19.4484 140.584C19.4484 141.533 19.6884 142.269 20.1684 142.792C20.659 143.304 21.2724 143.56 22.0084 143.56ZM30.5155 137.672V142.552C30.5155 142.883 30.5902 143.123 30.7395 143.272C30.8995 143.411 31.1662 143.48 31.5395 143.48H32.6595V145H31.2195C30.3982 145 29.7688 144.808 29.3315 144.424C28.8942 144.04 28.6755 143.416 28.6755 142.552V137.672H27.6355V136.184H28.6755V133.992H30.5155V136.184H32.6595V137.672H30.5155ZM38.1646 145.144C37.3326 145.144 36.5806 144.957 35.9086 144.584C35.2366 144.2 34.7086 143.667 34.3246 142.984C33.9406 142.291 33.7486 141.491 33.7486 140.584C33.7486 139.688 33.946 138.893 34.3406 138.2C34.7353 137.507 35.274 136.973 35.9566 136.6C36.6393 136.227 37.402 136.04 38.2446 136.04C39.0873 136.04 39.85 136.227 40.5326 136.6C41.2153 136.973 41.754 137.507 42.1486 138.2C42.5433 138.893 42.7406 139.688 42.7406 140.584C42.7406 141.48 42.538 142.275 42.1326 142.968C41.7273 143.661 41.1726 144.2 40.4686 144.584C39.7753 144.957 39.0073 145.144 38.1646 145.144ZM38.1646 143.56C38.634 143.56 39.0713 143.448 39.4766 143.224C39.8926 143 40.2286 142.664 40.4846 142.216C40.7406 141.768 40.8686 141.224 40.8686 140.584C40.8686 139.944 40.746 139.405 40.5006 138.968C40.2553 138.52 39.93 138.184 39.5246 137.96C39.1193 137.736 38.682 137.624 38.2126 137.624C37.7433 137.624 37.306 137.736 36.9006 137.96C36.506 138.184 36.1913 138.52 35.9566 138.968C35.722 139.405 35.6046 139.944 35.6046 140.584C35.6046 141.533 35.8446 142.269 36.3246 142.792C36.8153 143.304 37.4286 143.56 38.1646 143.56ZM46.6718 137.672V142.552C46.6718 142.883 46.7464 143.123 46.8958 143.272C47.0558 143.411 47.3224 143.48 47.6958 143.48H48.8158V145H47.3758C46.5544 145 45.9251 144.808 45.4878 144.424C45.0504 144.04 44.8318 143.416 44.8318 142.552V137.672H43.7918V136.184H44.8318V133.992H46.6718V136.184H48.8158V137.672H46.6718ZM51.4249 135.016C51.0942 135.016 50.8169 134.904 50.5929 134.68C50.3689 134.456 50.2569 134.179 50.2569 133.848C50.2569 133.517 50.3689 133.24 50.5929 133.016C50.8169 132.792 51.0942 132.68 51.4249 132.68C51.7449 132.68 52.0169 132.792 52.2409 133.016C52.4649 133.24 52.5769 133.517 52.5769 133.848C52.5769 134.179 52.4649 134.456 52.2409 134.68C52.0169 134.904 51.7449 135.016 51.4249 135.016ZM52.3209 136.184V145H50.4969V136.184H52.3209ZM56.5396 137.48C56.849 137.075 57.2703 136.733 57.8036 136.456C58.337 136.179 58.9396 136.04 59.6116 136.04C60.3796 136.04 61.0783 136.232 61.7076 136.616C62.3476 136.989 62.849 137.517 63.2116 138.2C63.5743 138.883 63.7556 139.667 63.7556 140.552C63.7556 141.437 63.5743 142.232 63.2116 142.936C62.849 143.629 62.3476 144.173 61.7076 144.568C61.0783 144.952 60.3796 145.144 59.6116 145.144C58.9396 145.144 58.3423 145.011 57.8196 144.744C57.297 144.467 56.8703 144.125 56.5396 143.72V149.192H54.7156V136.184H56.5396V137.48ZM61.8996 140.552C61.8996 139.944 61.7716 139.421 61.5156 138.984C61.2703 138.536 60.9396 138.2 60.5236 137.976C60.1183 137.741 59.681 137.624 59.2116 137.624C58.753 137.624 58.3156 137.741 57.8996 137.976C57.4943 138.211 57.1636 138.552 56.9076 139C56.6623 139.448 56.5396 139.976 56.5396 140.584C56.5396 141.192 56.6623 141.725 56.9076 142.184C57.1636 142.632 57.4943 142.973 57.8996 143.208C58.3156 143.443 58.753 143.56 59.2116 143.56C59.681 143.56 60.1183 143.443 60.5236 143.208C60.9396 142.963 61.2703 142.611 61.5156 142.152C61.7716 141.693 61.8996 141.16 61.8996 140.552ZM73.6394 140.376C73.6394 140.707 73.618 141.005 73.5754 141.272H66.8394C66.8927 141.976 67.154 142.541 67.6234 142.968C68.0927 143.395 68.6687 143.608 69.3514 143.608C70.3327 143.608 71.026 143.197 71.4314 142.376H73.3994C73.1327 143.187 72.6474 143.853 71.9434 144.376C71.25 144.888 70.386 145.144 69.3514 145.144C68.5087 145.144 67.7514 144.957 67.0794 144.584C66.418 144.2 65.8954 143.667 65.5114 142.984C65.138 142.291 64.9514 141.491 64.9514 140.584C64.9514 139.677 65.1327 138.883 65.4954 138.2C65.8687 137.507 66.386 136.973 67.0474 136.6C67.7194 136.227 68.4874 136.04 69.3514 136.04C70.1834 136.04 70.9247 136.221 71.5754 136.584C72.226 136.947 72.7327 137.459 73.0954 138.12C73.458 138.771 73.6394 139.523 73.6394 140.376ZM71.7354 139.8C71.7247 139.128 71.4847 138.589 71.0154 138.184C70.546 137.779 69.9647 137.576 69.2714 137.576C68.642 137.576 68.1034 137.779 67.6554 138.184C67.2074 138.579 66.9407 139.117 66.8554 139.8H71.7354ZM83.4146 145.144C82.5826 145.144 81.8306 144.957 81.1586 144.584C80.4866 144.2 79.9586 143.667 79.5746 142.984C79.1906 142.291 78.9986 141.491 78.9986 140.584C78.9986 139.688 79.196 138.893 79.5906 138.2C79.9853 137.507 80.524 136.973 81.2066 136.6C81.8893 136.227 82.652 136.04 83.4946 136.04C84.3373 136.04 85.1 136.227 85.7826 136.6C86.4653 136.973 87.004 137.507 87.3986 138.2C87.7933 138.893 87.9906 139.688 87.9906 140.584C87.9906 141.48 87.788 142.275 87.3826 142.968C86.9773 143.661 86.4226 144.2 85.7186 144.584C85.0253 144.957 84.2573 145.144 83.4146 145.144ZM83.4146 143.56C83.884 143.56 84.3213 143.448 84.7266 143.224C85.1426 143 85.4786 142.664 85.7346 142.216C85.9906 141.768 86.1186 141.224 86.1186 140.584C86.1186 139.944 85.996 139.405 85.7506 138.968C85.5053 138.52 85.18 138.184 84.7746 137.96C84.3693 137.736 83.932 137.624 83.4626 137.624C82.9933 137.624 82.556 137.736 82.1506 137.96C81.756 138.184 81.4413 138.52 81.2066 138.968C80.972 139.405 80.8546 139.944 80.8546 140.584C80.8546 141.533 81.0946 142.269 81.5746 142.792C82.0653 143.304 82.6786 143.56 83.4146 143.56ZM93.4898 137.672H91.8578V145H90.0178V137.672H88.9778V136.184H90.0178V135.56C90.0178 134.547 90.2844 133.811 90.8178 133.352C91.3618 132.883 92.2098 132.648 93.3618 132.648V134.168C92.8071 134.168 92.4178 134.275 92.1938 134.488C91.9698 134.691 91.8578 135.048 91.8578 135.56V136.184H93.4898V137.672ZM101.087 137.464C101.353 137.016 101.705 136.669 102.143 136.424C102.591 136.168 103.119 136.04 103.727 136.04V137.928H103.263C102.548 137.928 102.004 138.109 101.631 138.472C101.268 138.835 101.087 139.464 101.087 140.36V145H99.2625V136.184H101.087V137.464ZM109.227 145.144C108.395 145.144 107.643 144.957 106.971 144.584C106.299 144.2 105.771 143.667 105.387 142.984C105.003 142.291 104.811 141.491 104.811 140.584C104.811 139.688 105.008 138.893 105.403 138.2C105.798 137.507 106.336 136.973 107.019 136.6C107.702 136.227 108.464 136.04 109.307 136.04C110.15 136.04 110.912 136.227 111.595 136.6C112.278 136.973 112.816 137.507 113.211 138.2C113.606 138.893 113.803 139.688 113.803 140.584C113.803 141.48 113.6 142.275 113.195 142.968C112.79 143.661 112.235 144.2 111.531 144.584C110.838 144.957 110.07 145.144 109.227 145.144ZM109.227 143.56C109.696 143.56 110.134 143.448 110.539 143.224C110.955 143 111.291 142.664 111.547 142.216C111.803 141.768 111.931 141.224 111.931 140.584C111.931 139.944 111.808 139.405 111.563 138.968C111.318 138.52 110.992 138.184 110.587 137.96C110.182 137.736 109.744 137.624 109.275 137.624C108.806 137.624 108.368 137.736 107.963 137.96C107.568 138.184 107.254 138.52 107.019 138.968C106.784 139.405 106.667 139.944 106.667 140.584C106.667 141.533 106.907 142.269 107.387 142.792C107.878 143.304 108.491 143.56 109.227 143.56ZM119.43 145.144C118.598 145.144 117.846 144.957 117.174 144.584C116.502 144.2 115.974 143.667 115.59 142.984C115.206 142.291 115.014 141.491 115.014 140.584C115.014 139.688 115.212 138.893 115.606 138.2C116.001 137.507 116.54 136.973 117.222 136.6C117.905 136.227 118.668 136.04 119.51 136.04C120.353 136.04 121.116 136.227 121.798 136.6C122.481 136.973 123.02 137.507 123.414 138.2C123.809 138.893 124.006 139.688 124.006 140.584C124.006 141.48 123.804 142.275 123.398 142.968C122.993 143.661 122.438 144.2 121.734 144.584C121.041 144.957 120.273 145.144 119.43 145.144ZM119.43 143.56C119.9 143.56 120.337 143.448 120.742 143.224C121.158 143 121.494 142.664 121.75 142.216C122.006 141.768 122.134 141.224 122.134 140.584C122.134 139.944 122.012 139.405 121.766 138.968C121.521 138.52 121.196 138.184 120.79 137.96C120.385 137.736 119.948 137.624 119.478 137.624C119.009 137.624 118.572 137.736 118.166 137.96C117.772 138.184 117.457 138.52 117.222 138.968C116.988 139.405 116.87 139.944 116.87 140.584C116.87 141.533 117.11 142.269 117.59 142.792C118.081 143.304 118.694 143.56 119.43 143.56ZM136.481 136.04C137.175 136.04 137.793 136.184 138.337 136.472C138.892 136.76 139.324 137.187 139.633 137.752C139.953 138.317 140.113 139 140.113 139.8V145H138.305V140.072C138.305 139.283 138.108 138.68 137.713 138.264C137.319 137.837 136.78 137.624 136.097 137.624C135.415 137.624 134.871 137.837 134.465 138.264C134.071 138.68 133.873 139.283 133.873 140.072V145H132.065V140.072C132.065 139.283 131.868 138.68 131.473 138.264C131.079 137.837 130.54 137.624 129.857 137.624C129.175 137.624 128.631 137.837 128.225 138.264C127.831 138.68 127.633 139.283 127.633 140.072V145H125.809V136.184H127.633V137.192C127.932 136.829 128.311 136.547 128.769 136.344C129.228 136.141 129.719 136.04 130.241 136.04C130.945 136.04 131.575 136.189 132.129 136.488C132.684 136.787 133.111 137.219 133.409 137.784C133.676 137.251 134.092 136.829 134.657 136.52C135.223 136.2 135.831 136.04 136.481 136.04ZM145.634 145.144C144.941 145.144 144.317 145.021 143.762 144.776C143.218 144.52 142.786 144.179 142.466 143.752C142.146 143.315 141.976 142.829 141.954 142.296H143.842C143.874 142.669 144.05 142.984 144.37 143.24C144.701 143.485 145.112 143.608 145.602 143.608C146.114 143.608 146.509 143.512 146.786 143.32C147.074 143.117 147.218 142.861 147.218 142.552C147.218 142.221 147.058 141.976 146.738 141.816C146.429 141.656 145.933 141.48 145.25 141.288C144.589 141.107 144.05 140.931 143.634 140.76C143.218 140.589 142.856 140.328 142.546 139.976C142.248 139.624 142.098 139.16 142.098 138.584C142.098 138.115 142.237 137.688 142.514 137.304C142.792 136.909 143.186 136.6 143.698 136.376C144.221 136.152 144.818 136.04 145.49 136.04C146.493 136.04 147.298 136.296 147.906 136.808C148.525 137.309 148.856 137.997 148.898 138.872H147.074C147.042 138.477 146.882 138.163 146.594 137.928C146.306 137.693 145.917 137.576 145.426 137.576C144.946 137.576 144.578 137.667 144.322 137.848C144.066 138.029 143.938 138.269 143.938 138.568C143.938 138.803 144.024 139 144.194 139.16C144.365 139.32 144.573 139.448 144.818 139.544C145.064 139.629 145.426 139.741 145.906 139.88C146.546 140.051 147.069 140.227 147.474 140.408C147.89 140.579 148.248 140.835 148.546 141.176C148.845 141.517 149 141.971 149.01 142.536C149.01 143.037 148.872 143.485 148.594 143.88C148.317 144.275 147.922 144.584 147.41 144.808C146.909 145.032 146.317 145.144 145.634 145.144ZM157.266 137.672V142.552C157.266 142.883 157.34 143.123 157.49 143.272C157.65 143.411 157.916 143.48 158.29 143.48H159.41V145H157.97C157.148 145 156.519 144.808 156.082 144.424C155.644 144.04 155.426 143.416 155.426 142.552V137.672H154.386V136.184H155.426V133.992H157.266V136.184H159.41V137.672H157.266ZM165.651 136.04C166.323 136.04 166.92 136.184 167.443 136.472C167.976 136.76 168.392 137.187 168.691 137.752C169 138.317 169.155 139 169.155 139.8V145H167.347V140.072C167.347 139.283 167.149 138.68 166.755 138.264C166.36 137.837 165.821 137.624 165.139 137.624C164.456 137.624 163.912 137.837 163.507 138.264C163.112 138.68 162.915 139.283 162.915 140.072V145H161.091V133.16H162.915V137.208C163.224 136.835 163.613 136.547 164.083 136.344C164.563 136.141 165.085 136.04 165.651 136.04ZM170.873 140.552C170.873 139.667 171.055 138.883 171.417 138.2C171.791 137.517 172.292 136.989 172.921 136.616C173.561 136.232 174.265 136.04 175.033 136.04C175.727 136.04 176.329 136.179 176.841 136.456C177.364 136.723 177.78 137.059 178.089 137.464V136.184H179.929V145H178.089V143.688C177.78 144.104 177.359 144.451 176.825 144.728C176.292 145.005 175.684 145.144 175.001 145.144C174.244 145.144 173.551 144.952 172.921 144.568C172.292 144.173 171.791 143.629 171.417 142.936C171.055 142.232 170.873 141.437 170.873 140.552ZM178.089 140.584C178.089 139.976 177.961 139.448 177.705 139C177.46 138.552 177.135 138.211 176.729 137.976C176.324 137.741 175.887 137.624 175.417 137.624C174.948 137.624 174.511 137.741 174.105 137.976C173.7 138.2 173.369 138.536 173.113 138.984C172.868 139.421 172.745 139.944 172.745 140.552C172.745 141.16 172.868 141.693 173.113 142.152C173.369 142.611 173.7 142.963 174.105 143.208C174.521 143.443 174.959 143.56 175.417 143.56C175.887 143.56 176.324 143.443 176.729 143.208C177.135 142.973 177.46 142.632 177.705 142.184C177.961 141.725 178.089 141.192 178.089 140.584ZM184.453 137.672V142.552C184.453 142.883 184.528 143.123 184.677 143.272C184.837 143.411 185.104 143.48 185.477 143.48H186.597V145H185.157C184.336 145 183.706 144.808 183.269 144.424C182.832 144.04 182.613 143.416 182.613 142.552V137.672H181.573V136.184H182.613V133.992H184.453V136.184H186.597V137.672H184.453ZM193.362 135.016C193.032 135.016 192.754 134.904 192.53 134.68C192.306 134.456 192.194 134.179 192.194 133.848C192.194 133.517 192.306 133.24 192.53 133.016C192.754 132.792 193.032 132.68 193.362 132.68C193.682 132.68 193.954 132.792 194.178 133.016C194.402 133.24 194.514 133.517 194.514 133.848C194.514 134.179 194.402 134.456 194.178 134.68C193.954 134.904 193.682 135.016 193.362 135.016ZM194.258 136.184V145H192.434V136.184H194.258ZM201.101 136.04C201.794 136.04 202.413 136.184 202.957 136.472C203.512 136.76 203.944 137.187 204.253 137.752C204.562 138.317 204.717 139 204.717 139.8V145H202.909V140.072C202.909 139.283 202.712 138.68 202.317 138.264C201.922 137.837 201.384 137.624 200.701 137.624C200.018 137.624 199.474 137.837 199.069 138.264C198.674 138.68 198.477 139.283 198.477 140.072V145H196.653V136.184H198.477V137.192C198.776 136.829 199.154 136.547 199.613 136.344C200.082 136.141 200.578 136.04 201.101 136.04ZM210.244 145.144C209.55 145.144 208.926 145.021 208.372 144.776C207.828 144.52 207.396 144.179 207.076 143.752C206.756 143.315 206.585 142.829 206.564 142.296H208.452C208.484 142.669 208.66 142.984 208.98 143.24C209.31 143.485 209.721 143.608 210.212 143.608C210.724 143.608 211.118 143.512 211.396 143.32C211.684 143.117 211.828 142.861 211.828 142.552C211.828 142.221 211.668 141.976 211.348 141.816C211.038 141.656 210.542 141.48 209.86 141.288C209.198 141.107 208.66 140.931 208.244 140.76C207.828 140.589 207.465 140.328 207.156 139.976C206.857 139.624 206.708 139.16 206.708 138.584C206.708 138.115 206.846 137.688 207.124 137.304C207.401 136.909 207.796 136.6 208.308 136.376C208.83 136.152 209.428 136.04 210.1 136.04C211.102 136.04 211.908 136.296 212.516 136.808C213.134 137.309 213.465 137.997 213.508 138.872H211.684C211.652 138.477 211.492 138.163 211.204 137.928C210.916 137.693 210.526 137.576 210.036 137.576C209.556 137.576 209.188 137.667 208.932 137.848C208.676 138.029 208.548 138.269 208.548 138.568C208.548 138.803 208.633 139 208.804 139.16C208.974 139.32 209.182 139.448 209.428 139.544C209.673 139.629 210.036 139.741 210.516 139.88C211.156 140.051 211.678 140.227 212.084 140.408C212.5 140.579 212.857 140.835 213.156 141.176C213.454 141.517 213.609 141.971 213.62 142.536C213.62 143.037 213.481 143.485 213.204 143.88C212.926 144.275 212.532 144.584 212.02 144.808C211.518 145.032 210.926 145.144 210.244 145.144ZM217.415 137.48C217.724 137.075 218.145 136.733 218.679 136.456C219.212 136.179 219.815 136.04 220.487 136.04C221.255 136.04 221.953 136.232 222.583 136.616C223.223 136.989 223.724 137.517 224.087 138.2C224.449 138.883 224.631 139.667 224.631 140.552C224.631 141.437 224.449 142.232 224.087 142.936C223.724 143.629 223.223 144.173 222.583 144.568C221.953 144.952 221.255 145.144 220.487 145.144C219.815 145.144 219.217 145.011 218.695 144.744C218.172 144.467 217.745 144.125 217.415 143.72V149.192H215.591V136.184H217.415V137.48ZM222.775 140.552C222.775 139.944 222.647 139.421 222.391 138.984C222.145 138.536 221.815 138.2 221.399 137.976C220.993 137.741 220.556 137.624 220.087 137.624C219.628 137.624 219.191 137.741 218.775 137.976C218.369 138.211 218.039 138.552 217.783 139C217.537 139.448 217.415 139.976 217.415 140.584C217.415 141.192 217.537 141.725 217.783 142.184C218.039 142.632 218.369 142.973 218.775 143.208C219.191 143.443 219.628 143.56 220.087 143.56C220.556 143.56 220.993 143.443 221.399 143.208C221.815 142.963 222.145 142.611 222.391 142.152C222.647 141.693 222.775 141.16 222.775 140.552ZM227.362 135.016C227.032 135.016 226.754 134.904 226.53 134.68C226.306 134.456 226.194 134.179 226.194 133.848C226.194 133.517 226.306 133.24 226.53 133.016C226.754 132.792 227.032 132.68 227.362 132.68C227.682 132.68 227.954 132.792 228.178 133.016C228.402 133.24 228.514 133.517 228.514 133.848C228.514 134.179 228.402 134.456 228.178 134.68C227.954 134.904 227.682 135.016 227.362 135.016ZM228.258 136.184V145H226.434V136.184H228.258ZM232.477 137.464C232.744 137.016 233.096 136.669 233.533 136.424C233.981 136.168 234.509 136.04 235.117 136.04V137.928H234.653C233.938 137.928 233.394 138.109 233.021 138.472C232.658 138.835 232.477 139.464 232.477 140.36V145H230.653V136.184H232.477V137.464ZM244.874 140.376C244.874 140.707 244.852 141.005 244.81 141.272H238.074C238.127 141.976 238.388 142.541 238.858 142.968C239.327 143.395 239.903 143.608 240.586 143.608C241.567 143.608 242.26 143.197 242.666 142.376H244.634C244.367 143.187 243.882 143.853 243.178 144.376C242.484 144.888 241.62 145.144 240.586 145.144C239.743 145.144 238.986 144.957 238.314 144.584C237.652 144.2 237.13 143.667 236.746 142.984C236.372 142.291 236.186 141.491 236.186 140.584C236.186 139.677 236.367 138.883 236.73 138.2C237.103 137.507 237.62 136.973 238.282 136.6C238.954 136.227 239.722 136.04 240.586 136.04C241.418 136.04 242.159 136.221 242.81 136.584C243.46 136.947 243.967 137.459 244.33 138.12C244.692 138.771 244.874 139.523 244.874 140.376ZM242.97 139.8C242.959 139.128 242.719 138.589 242.25 138.184C241.78 137.779 241.199 137.576 240.506 137.576C239.876 137.576 239.338 137.779 238.89 138.184C238.442 138.579 238.175 139.117 238.09 139.8H242.97ZM258.761 136.184L253.353 149.144H251.465L253.257 144.856L249.785 136.184H251.817L254.297 142.904L256.873 136.184H258.761ZM263.962 145.144C263.13 145.144 262.378 144.957 261.706 144.584C261.034 144.2 260.506 143.667 260.122 142.984C259.738 142.291 259.546 141.491 259.546 140.584C259.546 139.688 259.743 138.893 260.138 138.2C260.532 137.507 261.071 136.973 261.754 136.6C262.436 136.227 263.199 136.04 264.042 136.04C264.884 136.04 265.647 136.227 266.33 136.6C267.012 136.973 267.551 137.507 267.946 138.2C268.34 138.893 268.538 139.688 268.538 140.584C268.538 141.48 268.335 142.275 267.93 142.968C267.524 143.661 266.97 144.2 266.266 144.584C265.572 144.957 264.804 145.144 263.962 145.144ZM263.962 143.56C264.431 143.56 264.868 143.448 265.274 143.224C265.69 143 266.026 142.664 266.282 142.216C266.538 141.768 266.666 141.224 266.666 140.584C266.666 139.944 266.543 139.405 266.298 138.968C266.052 138.52 265.727 138.184 265.322 137.96C264.916 137.736 264.479 137.624 264.01 137.624C263.54 137.624 263.103 137.736 262.698 137.96C262.303 138.184 261.988 138.52 261.754 138.968C261.519 139.405 261.402 139.944 261.402 140.584C261.402 141.533 261.642 142.269 262.122 142.792C262.612 143.304 263.226 143.56 263.962 143.56ZM278.325 136.184V145H276.501V143.96C276.213 144.323 275.834 144.611 275.365 144.824C274.906 145.027 274.415 145.128 273.893 145.128C273.199 145.128 272.575 144.984 272.021 144.696C271.477 144.408 271.045 143.981 270.725 143.416C270.415 142.851 270.261 142.168 270.261 141.368V136.184H272.069V141.096C272.069 141.885 272.266 142.493 272.661 142.92C273.055 143.336 273.594 143.544 274.277 143.544C274.959 143.544 275.498 143.336 275.893 142.92C276.298 142.493 276.501 141.885 276.501 141.096V136.184H278.325Z" fill="#616161"/>
</svg>
